<svg width="100%" viewBox="0 0 1200 117" class="header__wave">
  <g>
    <path d="M0,0.628379967 C0,0.628379967 296.602733,18.0726786 413.729769,35.6237716 C555.470997,56.8632186 776.604793,117 776.604793,117 L0,117 L0,0.628379967 Z"></path>
    <path d="M0,24.4492188 C0,24.4492188 200.350888,41.9257891 286.148438,56.8867188 C377.270158,72.7760495 530.757812,117 530.757812,117 L0,117 L0,24.4492188 Z"></path>
    <path d="M0,45.7773437 C0,45.7773437 108.365503,32.7327192 253.324219,37.3554688 C367.337261,40.9913573 501.436647,63.1152137 640.585938,59.7460938 C765.729928,56.7160739 904.324219,20.3984375 1000.01953,20.3984375 C1095.71484,20.3984375 1200,33.0507812 1200,33.0507812 L1200,117 L0,117 L0,45.7773437 Z"></path>
    <path d="M0,54.3855374 C0,54.3855374 146.085938,85.6927687 253.773438,85.6927687 C361.460938,85.6927687 473.460938,67.5273438 595.507812,67.5273438 C717.554687,67.5273438 833.78125,93.9011624 957.425781,85.6927687 C1081.07031,77.484375 1200,54.3855374 1200,54.3855374 L1200,117 L0,117 L0,54.3855374 Z"></path>
  </g>
</svg>