<?xml version="1.0" encoding="utf-8"?>
<!-- Generator: Adobe Illustrator 20.1.0, SVG Export Plug-In . SVG Version: 6.00 Build 0)  -->
<svg version="1.1" id="Ebene_1" xmlns="http://www.w3.org/2000/svg" xmlns:xlink="http://www.w3.org/1999/xlink" x="0px" y="0px"
	 viewBox="0 0 566.9 566.9" style="enable-background:new 0 0 566.9 566.9;" xml:space="preserve">
<style type="text/css">
	.st0{fill:#ffffff;}
	.st1{fill:#ffffff;}
	.st2{fill:#ffffff;}
	.st3{clip-path:url(#SVGID_2_);}
	.st4{fill:#ffffff;}
	.st5{fill:#ffffff;}
</style>
<g>
	<path class="st4" d="M453.8,365.2c0,3.7-2.6,9-4,12.5c-0.2,0.5-0.4,0.9-0.6,1.4c-0.7-0.7-2.2-0.5-2.7,0.5c-0.8,1.6-1.3,3.3-1.8,5
		c-0.4,0.3-0.7,0.6-0.9,1c-0.5,1.1-0.7,1.9-0.8,2.9c-0.2,0.3-0.4,0.7-0.6,1c-1.4,2.1-2.1,4.5-3.3,6.7c-2.1,3.7-5.9,6.2-7.8,9.9
		c-0.7,1.4,0.9,3.3,2.5,2.5c3-1.4,5.3-4.8,7.3-7.3c0.4-0.1,0.8-0.4,1-0.9c0.1-0.4,0.3-0.8,0.5-1.2c1.5-2.4,3-5.6,3.3-8.1
		c0.3-0.9,0.5-1.8,0.8-2.7c0.6-1,1.1-2,1.6-3c0.4-0.4,0.9-0.8,1.4-1.3c1.3-1.3,1.8-3.7,2.5-5.3c1.6-3.9,3.7-9.5,3.1-13.7
		C455.2,364.1,453.8,364.3,453.8,365.2z"/>
	<path class="st4" d="M318.8,154.1c-0.4-0.6-1.2-1-2.5-1.2c-2.1-0.3-3.2,2.9-1.1,3.6c0.3,0.1,0.5,0.4,0.7,0.8
		c-0.2,1.1,0,2.2,0.7,3.3c0.8,1.3,1.7,2.7,2.8,3.8c1.1,1.1,2.5,2,2,3.6c-0.4,1.4,0.4,3.4,1.9,3.9c-0.1,0.1-0.1,0.3-0.2,0.4
		c-0.3,0.4-0.5,0.8-0.7,1.1c-0.6,1-0.8,1.8-0.8,2.9c0,1.4,1.8,2.3,3,1.8c2.7-1.2,5.7-2.5,7-5.1c0.5-0.3,1-0.7,1.5-1.3
		c0.9-0.9,0.2-2.8-1.1-2.9c-0.9-0.1-1.9-0.2-2.8-0.3c0.4-2.2-3.1-4.5-5.7-6.3c-0.7-0.5-2.5-3.1-3.1-4.2c-0.3-0.6-0.5-1.3-0.7-1.8
		c0,0,0,0,0-0.1C320,155.1,319.5,154.3,318.8,154.1z"/>
	<path class="st4" d="M317.4,164.1c-0.5-0.9-1.7-1.2-2.8-1.1c-0.7-0.3-1.3-0.5-1.9-0.1c-1,0.6-1.6,1.5-1.6,2.7c0,0.2,0,0.5,0.1,0.7
		c-0.6,0.3-1,0.9-0.9,1.7c0.1,0.7,0.5,1.3,1,1.7c-0.3,0.5-0.6,1.1-0.7,1.8c-0.2,1.2,1,2.2,2.2,1.8c1.5-0.6,3.2-1.2,4.5-2.1
		c0.6-0.4,0.8-1.2,0.5-1.8c-0.2-0.4-0.4-0.8-0.7-1.2C318.1,166.8,318.2,165.5,317.4,164.1z"/>
	<path class="st4" d="M361.7,204.3c-1.9-0.5-3.1,2.2-1.6,3.4c0.3,0.2,0.3,0.3,0.4,0.4c0,0-0.1,0-0.2,0c0.1,0.1,0.2,0.2,0.2,0.1
		c0.1,0.6,0.4,1.1,0.4,1.7c-0.1,1.2,0.7,2.2,2,2.1c0.9-0.1,1.7-0.9,1.7-1.8c0.1-1,0.2-2.1-0.1-3.1
		C364.2,205.7,363.1,204.6,361.7,204.3z"/>
	<path class="st4" d="M348.9,207.6C348.8,207.6,348.8,207.6,348.9,207.6c-0.1-0.6-0.4-1-1-1.1c-0.8-0.1-1.5,0.5-1.4,1.3
		c0,0.3,0.1,0.7,0.3,1c0.1,0.1,0.1,0.2,0.2,0.2c0.1,0.2,0.1,0,0-0.1c0.2,1.2,2,1.4,2.3,0.1c0.1-0.3,0-0.6-0.1-1
		C349.1,208,349,207.8,348.9,207.6z"/>
	<path class="st4" d="M360.2,208.1c0,0,0.1,0,0.1,0C360.3,208.1,360.2,208,360.2,208.1z"/>
	<path class="st4" d="M379.1,211.3c-0.3-0.1-0.5-0.2-0.8-0.2c-0.9-0.1-1.6,0.3-2,1c-0.1-0.1-0.3-0.1-0.4-0.2c0,0,0,0,0,0
		c-0.6-0.3-1.3-0.3-1.9,0.2c-0.8,0.6-1.1,1.8-0.4,2.6c0.5,0.6,1.2,1.1,1.9,1.6c0.7,0.5,1.7,1.1,2.7,0.9c1.4-0.3,2.2-1.3,2.3-2.7
		c0-0.6-0.1-1.2-0.3-1.7C380,212.2,379.8,211.6,379.1,211.3z"/>
	<path class="st4" d="M465.2,281.7c-1.4-0.2-2.3,0.7-2.5,1.8c-2.4,1.6-5.7,4.3-7,1.2c-1-2.4-1.8-4.3-3.6-6.3
		c-2.2-2.7-4.7-4.2-6.3-7.4c-1-1.8-2.2-3.5-3.3-5.2c-0.4-5.8-2.9-11.9-6.8-15.8c-0.1-0.3-0.2-0.7-0.3-1c1.9,2.4,3.8,4.8,5.6,7.4
		c2.3,3.2,4.1,6.3,6.9,9.2c4.1,4.1,8.9,8.2,8.5,14.6c-0.1,1,0.5,2.2,1.7,2.3c0.2,0,0.4,0,0.6,0c1,0.1,2.2-0.5,2.3-1.6
		c0.8-8.7,4.8-16.6,6.1-25.1c0.5-3.5,0.2-7.4,0.1-11c0-4.2-4.3-7-4.5-11.3c-0.1-1.1-0.6-1.9-1.4-2.2c6.3-0.1,5.7-13.7,5.7-17.4
		c0.1-4.5,0.6-9.2-0.9-13.5c-1.7-4.7-5.1-8.7-7-13.4c-4.7-11.6-9.9-22-17.3-32.2c-14-19.1-33.4-33.6-53.1-46.6
		c-9.5-6.2-19.9-11.6-30.6-15.6c-12-4.4-23.3-8.4-36.2-9.6c-1.3-0.1-2.3,0.3-3,0.9c-0.6-0.5-1.2-1.1-1.7-1.8
		c-1.8-2.3-5.6,0.4-3.8,2.7c1.2,1.5,2.6,2.5,4.2,3.5c0.4,1.2,1.3,2.2,3,2.3c0.2,0,0.3,0,0.5,0.1c2.5,1.7,6.5,4.7,6.5,6.6
		c0.1,5.5,7.8,7,11.9,8.8c1.3,0.6,8,1.5,7.3,3.1c-0.6,1.4-0.2,3.4,1,4.4c1.9,1.5,3.9,2,6.4,2.2c2,0.2,3.8,0.6,5.5,1.2
		c-0.4,2.3-0.4,5.5-0.2,7.6c0.2,2.9,1.4,3.9,3.6,5.8c-0.5-0.4,2.3,3.3,0.2,1c-0.5-0.5-1.2-0.9-1.9-1.1c-1-0.2-3-0.3-5-0.5
		c0.7-0.1,1.3-0.4,1.7-0.9c1.5-1.8,0.8-4.9-0.8-6.4c-0.7-0.6-1.7-0.5-2.4-0.1c-3.9,2.3-8.8-3.5-12.6-1.6c-3.5,1.7-7.7,3.5-8.5,7.7
		c-0.4,2.1-0.6,4-0.3,6.1c0.3,2.5,0.3,4.7-1.4,6.5c-0.5,0.5-1.2,1.4-1.3,2.2c-0.6,3.4,1.8,9.9,4.6,12.1c1.3,1,3,0.5,3.7-0.9
		c0.5-1,1.3-3.7,3-3.4c1.8,0.3,4.5,3.5,4.3,5.3c-0.1,1.5,1.3,3.2,3,2.4c0.4-0.2,0.7-0.3,0.8-0.3c1.3,0.4,2.6-0.3,2.9-1.7
		c0.4-1.7,1.5-4.5,0.8-6.2c-1.3-3.4-6.6-3.5-5.8-8.2c0.2-1.6,0.1-2.3-0.2-3.9c0-0.2-1.8-4.7-1.3-4.5c4.6,1.5,2.7,6.5,3.9,9.7
		c1.7,4.3,8.6,3.8,11.5,1.4c0.2-0.2,3.2-3.1,3.8-2.1c0.5,1,2.3,1.4,0.3,2.8c-2.1,1.5-4.6,3.2-5.4,5.7c-0.3,1,0,1.9,1,2.5
		c1.2,0.7,0.2,2,0.8,3.1c2.5,4.2-4,4.3-6.5,4.2c-1.7-0.1-3.1,0.5-4.6,1.1c-0.4,0.2-4.1-0.6-5.6-1.5c-0.1-0.5-0.2-1.1-0.1-1.9
		c0.2-1.9-2-2.9-3.4-1.5c-1.1,1.2-1.2,2.3-0.7,3.5c-0.2,1.9,0,4.1,1.7,4.7c0.8,0.3,1.6,0.5,2.4,0.7c-3.4,1.4-3.3,4.2-6.4,6.4
		c-2.2,1.6-5.3,0.3-6.6,3.1c-1.2,2.6-5.5,2.3-7.5,4.4c-0.8,0.8-1.9,2.7-0.6,3.7c3.5,2.6,6.9,4,8.4,8.3c1.5,4.2-11.8,3.4-13,3.5
		c-1.6,0.2-2,1-2.5,1.9c-0.3-0.2-0.5-0.2-1.2-0.4c-0.5-0.1-1,0.3-1.1,0.8c-0.6,3.3,0.2,6,1.2,9.1c0.7,2.3,1,4.3,0.3,6.6
		c-0.2,0.6,0,1.6,0.4,2.1c1.1,1.5,2.9,1.5,4.6,1.6c2,0.1,4.2,3.4,6.3,4c-0.8-0.1-1.6,0.2-2.5,1.3c-2.1,2.6-0.7,7.2-3.2,9.7
		c-0.5-0.5-1.1-0.9-2.2-1.1c-1.1-0.2-2,0.4-2.5,1.3c-2.6,4.6-1.7,9.3-5.5,13.5c-1.8,2-4,4.1-5.7,6.2c-1.9,2.4-4.3,4-6.3,6.1
		c-3.1,3.4-3.4,9.1-5.8,13c-2.5,4.2,2.5,10.4-1,13.8c-0.2,0.1-0.4,0.2-0.6,0.4c-0.2,0.2-0.4,0.3-0.6,0.5c-1.5,1.3-1.2,3.1,0,4
		c-0.8,1.8-1,3.7-1.2,6.1c0,0.7,0.3,1.3,0.7,1.7c0,4.1,1.2,7.9,4.7,10.7c2.1,1.6,3.7,2.3,4.4,5.2c0.4,1.8,0.8,3.3,1.9,4.7
		c1.9,2.5,6.3,7,9.2,8.3c1.8,0.8,3.7,0.8,5.5,1.8c2,1.1,4.2,2.4,6.5,3.1c2.4,0.7,2,1.5,4.3,1.1c2.7-0.5,5.1-1.2,7.9-1.5
		c2.4-0.2,8.6,1.3,10.7-1c1.8-1.9,3.9-3.2,6.1-4.4c0.4-0.1,0.8-0.1,1.1,0c2.3,0.2,6.7-5.5,9-2.6c1.4,1.8,3.5,1.5,4.1,3.6
		c1.6,5.2,4.8,6.2,10,5c4.5-1.1,0.5,4.6-0.2,6.9c-1,3.3-1.3,7.3-1.8,10.7c-0.5,3.2,1.6,6.6,3,9.3c1.8,3.4,2.7,7,4.2,10.5
		c1.6,3.6-0.8,11.3-1.4,15c-0.5,2.7-1,5.4-2.4,7.8c-1.2,1.9-3.3,3.2-4.4,5.1c-1.7,3-1.6,5.9-1.3,9.2c0.4,4.4,0.4,9.7-1.2,13.9
		c-0.9,2.2-1.4,4.6-1.2,7c0,0.5,0.5,1.1,0.8,1.5c-0.4,1.1-0.7,2.1-1,3.2c-1.2,4.4-2.1,10.3-1.8,14.8c0.1,1,1.2,2.1,2.3,1.8
		c7.1-1.6,12.8-4.4,17.7-9.8c2-2.2,3.8-4.2,6.9-4.7c1.2-0.2,2.7,0,3.8-0.4c4.1-1.7,6.4-5.8,8.9-9.2c2.4-3.3,4-6.8,5.7-10.5
		c2.2-5,5.5-7.9,9.4-11.6c3.5-3.3,5.9-7.4,9.1-10.9c2.1-2.3,4.8-4.2,5.7-7.3c2.8-9.1,5.7-18.4,7.1-27.8c0.3-2.2,0.4-4.4,0.7-6.6
		c0.4-2.6,3.4-5.2,4.6-7.4c2.5-4.7,4.6-9.2,6.5-14.2c1.9-5,4.2-9.9,5.9-15c1.7-5.1,2.9-10.4,5.2-15.4c1.5-3.3,1.2-8.5,1.4-12.1
		C469,283.6,467.8,282.1,465.2,281.7z M451.9,229.2c1.5,0.3,3.2-0.1,4.6,0.4c1.2,0.4,2.1,1.1,3.2,1.5c-1,0.1-2,0.6-2.5,1.6
		c-1,1.8-1.5,3.6-2.1,5.6c-0.2,0.7-0.2,1.6-0.2,2.5c-2.7-3.4-4.5-8-5.6-12.4C450,228.7,450.8,229,451.9,229.2z M403.9,184.2
		c1.4-0.5,1.8-1.4,1.9-2.5c0.5,1.1,1.3,2.2,2.8,2.9c2.9,1.4,5.2,1.5,7.1,4.6c1.5,2.4,2.4,4.5-1.1,5.2c-3.9,0.7-8.1,0.9-11.9,1.9
		c-0.1,0-0.1,0-0.2,0.1c-2.2-2.9-3-5-2.5-9c0.2-1.9-0.7-3.8-0.7-5.5C400.4,183.5,401.6,185,403.9,184.2z M408.5,226.7
		c-3.5,1.1-9.5-0.7-12,2.9c-1.1,1.6-1,3.7-3.2,3.2c-3.2-0.8-6.9-3.1-9.8-4.8c-2.8-1.7-5.3-4.1-8.8-4.4c-1.7-0.2-1.6-0.9-3-2
		c-1.7-1.3-2.1,1.1-0.9-2c3.3-9.5-13.4-3.4-16.6-2.5c-2.8,0.8-5.4,0.9-8.2,1.4c-2.5,0.4-4.6,1.7-6.9,2.5c-2.7,1-5.8,0.7-8.2,2.1
		c-1-0.4-1.9-1.1-2.9-1.4c0.3,0,0.6,0,0.9-0.1c2.7-1,5.6-1.5,8.3-2.7c1.8-0.7,3.3-2.8,2.9-4.7c-0.7-4.1-0.7-7.4,2.8-10.4
		c2.1-1.8,5.9-2.5,6.8-5.3c0.1-0.3,0.1-0.6,0-0.8c1.7-1.5,4.8-2.3,6.8-2.1c1.6,0.2,2.4-0.3,3.3-1c1.7,2.5,3,5.1,6.3,5.9
		c3.6,0.9,6.7,1,9,4.4c1,1.5,1.8,2.8,2.9,4.1c1,1.2,1.1,1.5,1.1,1.4c0,0.8,0.5,1.8,1.5,1.6c0.7-0.1,1.4-0.2,1.8-0.8
		c0.3-0.4,0.5-1,0.3-1.5c-1.2-2.1-2.2-4.3-3.5-6.4c0,0,0,0,0-0.1c-1.2-1.9-2.5-3.7-4.2-5.2c-1.2-1-3.2-1-4.6-1
		c-0.7-0.7-1.3-1.5-2.1-2.1c-2.3-2.1-4.1-3.3-5.4-6.2c0-0.1-0.1-0.2-0.1-0.3c2.8-0.6,6.7,1.1,8.5,3c3,3.1,6.9,4.7,8.6,9
		c0.6,1.5,1.5,4.7,3.4,5.3c0.8,0.3,3.8,1,4.1,1.4c1.3,1.4,1.8,3.4,3.4,4.7c2.2,1.8,7.2,2.8,7.9-1.2c0.3-1.9-1-3.2-2.2-4.4
		c-0.3-0.3-3.1-3.1-2.1-3.5c1.3-0.5,3-1.2,4.6-1.5c0,0.3,0.1,0.7,0.2,1c0.8,2.7-0.8,7,3,8.2c4.5,1.4,9.2,1.2,13.9,0.9
		c7.9-0.6,5,6.1,6.4,10.8C425,229.7,412.9,225.4,408.5,226.7z"/>
	<path class="st4" d="M360.7,199.6c0.7-0.3,0.7-1.1,0.1-1.5c0.3-0.2,0.2-0.8-0.3-0.9c-0.2,0-0.4-0.1-0.5-0.1
		c-0.4-0.1-0.6,0.2-0.7,0.5c-0.1,0.3-0.2,0.6-0.3,0.9c-0.2,0.5,0,0.9,0.4,1.1C359.9,199.7,360.3,199.8,360.7,199.6z"/>
	<polygon class="st4" points="360.2,208.1 360.2,208.1 360.2,208.1 	"/>
	<path class="st4" d="M245.9,92.4c0,0.1-0.2,0.1-0.2,0.2c0,0-0.1,0-0.1,0c0,0,0,0,0,0c0,0.1,0,0.2,0,0.2c0,0,0,0,0,0.1
		c0,0.1,0,0.1,0.1,0.2c0.2,0.4,0.6,0.8,1.1,0.8c0,0,0,0,0,0c0.4,0.1,0.8,0.2,1.2,0.2c0.6,0,1.2-0.1,1.8-0.3c1.2-0.4,1-2,0.1-2.5
		c-0.9-0.4-1.7-0.6-2.7-0.6c-0.4-0.1-0.8,0.1-1.1,0.4c0,0-0.1,0.1-0.1,0.1c0,0-0.1,0.1-0.1,0.1c-0.1,0.1-0.1,0.1-0.2,0.2
		c0,0,0,0,0,0c0,0.1-0.1,0.1-0.1,0.2c0,0,0,0.1,0,0.1c0,0.1,0.4,0.1,0.4,0.2c0,0,0.4,0.1,0.4,0.1c0,0,0,0,0,0
		C246.3,92.3,245.9,92.3,245.9,92.4z"/>
	<path class="st4" d="M250.6,97.1c1.4,0.1,1.8-2,0.4-2.1C249.5,94.9,249.2,97,250.6,97.1z"/>
	<path class="st4" d="M241,121.2c-0.1-0.6-0.2-1.2-0.4-1.8c-0.2-0.9-0.7-1.5-1.4-1.8c-0.3-0.6-1.1-0.8-1.5-0.3c-1,0.1-2,0.6-2.7,1.7
		c0,0,0,0.1,0,0.1c-0.3-0.1-0.7-0.1-1-0.1c-1.2,0.3-2.2,1-2.3,2.3c-0.2,2.4,2.2,4.6,3.7,6.2c1.7,1.8,4.1,1.2,5.3-0.6
		c0.5,0.1,1.1,0.2,1.7,0.1c0.7-0.1,1.3-0.6,1.4-1.3C244.3,123.7,242.5,122.5,241,121.2z"/>
	<path class="st4" d="M260.8,101.5c-0.4,0.8,0.1,1.6,0.8,2c0.9,0.5,1.9,0.4,2.8-0.1c0.3-0.2,0.6-0.5,0.8-0.8
		c0.2-0.2,0.3-0.5,0.4-0.8c0,0,0-0.1,0-0.1c0,0,0,0,0-0.1c0.3-0.7-0.2-1.8-1.2-1.6c-0.6,0.1-1,0.2-1.5,0.6c0,0-0.1,0.1-0.1,0.1
		C262,100.3,261.1,100.8,260.8,101.5z"/>
	<path class="st4" d="M260.6,95.8c-1.5-0.1-1.9,2.1-0.4,2.3C261.7,98.2,262.1,95.9,260.6,95.8z"/>
	<path class="st4" d="M258.4,100.9c1-0.1,1-1.4,0.1-1.7c-0.1,0-0.3-0.1-0.4-0.1c0,0-0.4-0.1-0.2,0c-0.2-0.1-0.3-0.1-0.5-0.1
		c0,0,0,0,0,0c-0.1-0.2-0.1-0.5-0.2-0.8c-0.1-0.3-0.5-0.4-0.7-0.1c-0.2,0.6-0.6,1.3-0.3,1.9C256.6,101,257.6,101,258.4,100.9z"/>
	<path class="st4" d="M259,96c0.7,0,1.2-0.4,1.6-0.9c-0.2,0.2,0.1-0.1,0.2-0.1c0,0,0.1,0,0.1-0.1c0.2-0.1,0.2-0.1,0.4-0.1
		c1.4-0.2,1.4-2,0.1-2.3c-0.7-0.2-1.4-0.1-2.2,0.1c-0.3,0.1-0.5,0.2-0.8,0.3c-0.6,0.3-0.9,0.8-1.1,1.4C257.2,95.3,258.1,96,259,96z"
		/>
	<path class="st4" d="M300.6,123.2c2.6-1.7,8.2-1.7,7.2-6.2c-0.3-1.4-1.7-1.7-2.9-2.2c1.2,0.5,4.2-1.8,4.6-2.9c0-0.1,0-0.2,0.1-0.2
		c1.6,0.9,3.4,1.4,5.1,2c0.3,0.1,0.6,0.2,1,0.3c1.9,0.4,2.9-2.6,1-3.2c-0.4-0.1-0.8-0.3-1.2-0.4c-0.2-0.1-0.3-0.2-0.4-0.3
		c0.2-0.2,0.3-0.4,0.4-0.7c0.8-1.6-1.1-2.7-2.4-1.9c-0.2,0.1-0.5,0.2-0.7,0.2c-0.1,0-0.3-0.1-0.4-0.2c-0.5-0.4-1.3-0.3-1.7,0.1
		c-0.2,0-0.4,0-0.6,0c-0.1-0.3-0.2-0.6-0.3-0.9c-0.8-2.1-3.5-2.2-2.7-4.6c0.3-0.9,0.1-1.5-0.5-2.2c-1.6-1.6-4.4-1.4-6.5-1.5
		c-1.2,0-2.2,0.5-3.3,1c-0.8,0.3-0.6-1.6-1.3-2.3c-3-2.5-7.1-2.2-10.9-2.3c-4.4-0.2-9-2.1-13,0.2c-1.9,1.1-1.9,3.9-0.7,5.4
		c0.5,0.6,1.4,1.1,2.1,1.3c0.7,0.2,1.5,0.3,2.2,0.4c2.4,0.2,0,0.5-0.8,1.2c-3.2,2.5-3.8,3.5-4.2,7.6c-0.3,2.9-2.6,4.6-3.7,7.1
		c-2.6,2.4-3.5,6.5-5.7,9.4c-1.3,1.7-4,9.6-1.9,11.4c3.5,3,7-2.2,9.3-4.3c6.2-5.7,12.6-8.9,21-6.7c1.6,0.4,3.2-0.8,4.3-1.7
		C295.3,124.4,298.3,124.7,300.6,123.2z"/>
	<path class="st4" d="M137.5,238c1.7,0.6,3.6-1.8,1.8-2.9c-0.1-0.1-0.3-0.1-0.4-0.2c0,0,0,0,0,0c-0.1,0-0.2-0.1-0.4-0.2
		c-0.5-0.4-0.9-0.8-1.5-1.1c-0.3-0.4-0.7-0.8-0.9-1.3c-0.1-0.2-0.2-0.4-0.3-0.6c-1-1.9-1.5-4.1-1.8-5.6c-0.1-0.5-0.3-1-0.5-1.5
		c-0.1-0.2-0.1-0.4-0.2-0.6c-1-3-3-5.9-6.5-6c-1.8-0.1-2.9,1.9-1.4,3.1c0.9,0.8,1.6,1.7,2.4,2.6c0.7,0.9,2,1.6,2.5,2.6
		c0.2,0.3,0.3,0.7,0.4,1.1c0.2,0.7,0.3,1.4,0.4,1.9c0.4,1.6,0.4,3.5,1.5,4.9c0.1,0.2,0.2,0.3,0.4,0.4c0.1,0.5,0.4,1,0.8,1.5
		c0.7,0.7,1.5,0.9,2.4,1.2C136.7,237.6,137.1,237.8,137.5,238z"/>
	<path class="st4" d="M243.3,100.4c-1.9,0-4.3-0.3-6.5-0.3c1.7-0.1,3.5-0.4,4.7-1.9c1.5-1.8,0.7-4.5-1.2-5.7
		c-1.6-0.9-6.8-1.2-3.1-4.7c1.5-1.4,2.7-2.5,3.8-4.3c0.6-1-0.1-2.5-1.2-3c-8.4-3.5-17.7,0.7-24.9,4.8
		c-11.6,6.7-121.3,46.6-110.8,112c0,0,0,0,0,0.1c0,0,0,0.1,0,0.1c-1.5,2.4-3.5,4.9-4,7.7c-0.2,1-0.3,2-0.4,2.9
		c-0.3,0.6-0.6,1.3-0.9,1.9c-0.4,2.5-0.6,5-0.8,7.5c-0.4,3.9,1,7.7,2.1,11.4c1.4,4.9,2.1,10.1,3.3,15c1.2,4.9,1.4,12.4,4.5,16.9
		c0,0.1,0,0.2,0.1,0.3c1.2,3.6,2,7.1,3.1,10.7c0.8,2.5,3.2,4.6,5.8,4.8c1.5,0.1,2.6,0.1,4,0.8c-0.7,1.4-1.2,2.7-1.4,4
		c-1,5.1-2.7,8.1-6.1,11.9c-3.2,3.6-1.2,8.9-2.6,13.1c-1.4,4.3-3.3,7.7-3.3,12.4c0,3.8,3,8.9,4.9,12c2.5,3.9,5.7,7.2,8.1,11.2
		c2,3.4,2.4,5.5,2.1,9.4c-0.2,1.8-0.1,3.3,0.5,5c0.6,2.2,2,4.2,2.7,6.4c0.8,2.4,1.2,4.6,2.2,6.9c0.7,1.5,1.8,2.9,2.8,4.2
		c2.1,2.9,2.3,6.6,2.9,10c1.8,9.4,2.4,19.4,5.5,28.5c1.4,4.2,3.7,8.2,5.4,12.4c1.7,4.2,3.4,7.7,7.2,10.3c3.8,2.6,8.4,3.9,12.1,6.7
		c3.6,2.8,6.6,6.7,10,9.9c1,1,2,2.1,2.9,3.4c0.8,1.5,1.6,3,2.3,4.6c0.3,0.7,0.8,1.4,1.2,2c0.5,1.2,0.9,2.3,1.2,3.5
		c1.2,4.2,6,7.8,8.4,11.4c0.5,0.8,1.3,1.1,2,1.1c2.6,3.1,5.5,6.1,8,9.2c1.4,1.7,3.8-0.1,2.7-1.9c-5-8.4-10.1-17-15.5-25.2
		c-2.5-3.8-5.2-7.6-6.2-12.1c-0.4-1.8,0.1-4.1,0.2-6c0-1.8-1.2-3.4-2-4.9c-1-2.1-2.3-3.2-2.6-5.6c-0.4-3.7,2.3-0.8,3.7,0.1
		c2.8,1.9,5.2,1.6,7.9,0c2.4-1.5,3.9-4.6,5.1-7c0.7-1.3,1.2-2.7,1.8-4.1c0.8-2.1,0.3-4.4,1.5-6.4c0.4-0.6,0.4-1.2,0.2-1.7
		c0.2-0.1,0.5-0.2,0.8-0.3c1.6-0.4,2.6-1.6,4.3-1.9c0.7-0.1,2,0.3,2.8,0c2.4-1.1,4.3-2.5,6.1-4.3c2.5-2.5,8.1,0.4,11.2-0.3
		c4.6-1.1,8.4-5.7,9.5-10.1c0.7-2.8-0.7-6.4-1.2-9.1c-0.7-4,3-10.6,6-13.4c3.5-3.2,7.6-6.4,7.4-11.8c-0.3-5.6-3.9-10.7-9-13.1
		c-3.6-1.7-8.6-2-11.4-4.9c-1.8-1.9-3.1-3.8-5.3-5.2c-2.7-1.7-5.9-1.3-8.7-2.7c-3.2-1.5-5.4-4.2-8.5-5.7c-2.4-1.2-5.1-1.6-7.7-2.4
		c-4.7-1.5-3.9-5.3-3.6-9.2c0.5-5.9-1.9-9-6.7-12.5c-2.3-1.6-4.3-3.6-6.6-5.1c-2.6-1.6-6-0.9-8-3.6c-1.7-2.3-3.3-4.4-5.3-6.5
		c-2.7-2.9-3.9-7-5.8-10.4c-2.1-3.9-4.8-6-9.2-5c-2.3,0.6-4.7,1-5.7-1.6c-0.3-0.8-0.6-1.7-1.1-2.5c-1-1.6-2.5-3.2-4.5-3.6
		c-4.8-1-9.8,2.8-13.1,7.3c-0.1-0.1-0.2-0.2-0.3-0.2c-2.2-1.3-6.2-0.9-7.4-3.2c-1.3-2.5-3-11.5-1.6-13.6c2.9-4.2,12-12.5,6.6-17.9
		c-1.2-1.2-9.3-4.9-5.9-7.3c2.5-1.7,5-2.4,6.5-5.3c0.5-0.9,0.1-2-0.7-2.7c-3.8-3.3-7.7-1.9-11.8-0.3c-0.4-1.8-0.6-3.4-0.4-5.4
		c0.2-3.1,3.2-5.4,5.3-7.4c1.8-1.7,2.9-3.5,4.1-5.7c1.6-2.8,3.7-4.5,5.6-6.9c2.6-3.2,6.6-6.6,10.5-2.3c1.7,1.9,4.5-0.4,5.4,3.3
		c-2.4,4.9-2.4,10.8-6.1,15.4c-1.6,2,1.4,4.4,3.1,2.5c2.3-2.6,6-5.2,6.7-8.8c0.5-2.7,0.8-5.6,0.5-8.4c1.6-2.2,5.2-2.4,7.6-3.1
		c2.8-0.8,5.2-2.5,7.5-4.3c5.1-3.9,9.3-8.3,14.8-11.8c4.1-2.7,6.1-3.1,11-2.1c2.3,0.5,4.3,0.5,6.5-0.3c2.9-0.9,4.7-3,7.9-3.6
		c3.3-0.6,4.5,1.6,7.2,2.6c2.9,1.1,5.4-2.9,6.7-4.7c1.4-1.9,2.8-5.5,0.2-7.3c-1.7-1.1-3.5-1.3-5.3-2.1c-0.6-0.3-6.3-0.8-2.6-3.6
		c0.8-0.6,1.3-1.2,2-2c0.7-0.8,0.6-1.9,0.1-2.7c-1.5-2.5-3.9-2.5,0.8-2c2.6,0.3,4.9,3,7.5,3.1c2.8,0.1,5.4-0.2,6.5,3.1
		c0.5,1.6,1.2,3,2.1,4.4c1.1,1.9,3.6,2.8,5.6,2c2.7-1,3.2-3.6,3.2-6.1c0-2.7-0.1-6.2-1.2-8.7c-1.2-2.7-1.5-3.5,1.4-5.9
		c1.4-1.2,3.2-2.5,4.1-4.1c1.4-2.6,2.1-6.8-1.2-8.4c-2.6-1.3-5-0.7-7.4,0.2c0.4-3.9,4.1-8.9-0.7-11c-6.3-2.8-12.4,6.3-16.1,9.3
		c-4.6,3.8-9.1,7.9-14.1,11.2c-1.1,0.7-2.2,1.3-3.3,1.8c-1.2,0.5-2.7,1.4-2.1-0.2c0.9-2.4,3-4.6,3.6-7c1.4-4.9,9.4-7.1,5.8-13.1
		c-2.9-4.9,3.9-3.9,6.4-3.9c3.8-0.1,6.5-2,9.9-3.1c3.4-1.1,5.7-1.3,8.3,0.7c2.2,1.7,4.8,0.5,7.1-0.3c3.6-1.3,6.4-3.2,9.9-4.9
		c1-0.3,1.9-0.6,2.9-1c1.7-0.9,2-0.6,1,0.8c-0.1,2.2-2.3,3.7-3.5,5.3c-1,1.3-0.3,3.3,1.4,3.6c6.6,1.2,11.6-7,12.1-12.5
		C257.1,100.5,248.3,100.5,243.3,100.4z M116.8,182.3c-0.2,0.2-0.4,0.4-0.5,0.7c0.1-0.2,0.1-0.3,0.2-0.5c0.6-1.4,1.3-2.8,2.1-4.2
		C118,179.7,117.4,181,116.8,182.3z"/>
	<path class="st4" d="M313.5,128.8c-1.5,0-3.2,0.4-4.6,1.2c0,0,0,0,0,0c-0.7,0.1-1.6-0.1-2.3-0.1c-1.6,0-4.2-0.2-5.2,1.3
		c-0.7,1-0.5,2,0.1,2.7c0,0,0,0,0,0c1.2,2.1,4.6,1.5,6.6,1.8c2.2,0.4,5.4,1.2,7.2-0.6c0.6-0.6,0.4-1.5,0-2.1
		c-0.2-0.3-0.4-0.5-0.7-0.7C316.2,131.6,315.6,128.9,313.5,128.8z"/>
	<path class="st4" d="M138.3,246.8c2.2,0.5,4.6,2.4,6.8,1.5c0.3,0.8,1,1.3,1.9,1.3c0.2,0,0.3,0,0.5,0c1.1,1.3,2.4,2.2,4.4,1.4
		c1.8-0.7,1.8-3,0.8-4.3c-1.3-1.7-3.4-1.9-4.7-3.5c-0.2-0.7-0.6-1.3-1.3-2c-0.8-0.8-1.9-0.5-2.5,0.2c-1.6-0.4-2.7,1.3-1.8,2.6
		c0.3,0.6,1,1,1,1.1c-0.6-0.1-1.2-0.3-1.8-0.5c-0.9-0.3-1.8-0.6-2.7-0.8C137.1,243.4,136.2,246.4,138.3,246.8z"/>
	<path class="st4" d="M131.9,244.7c0.1,0,0.2,0.4,0.3,0.4c0,0,0,0,0.1,0c0.2,0,0.3,0,0.4,0.1c0.4,0.5,1.2,0.2,1.6-0.3
		c1.3-1.8-0.7-3.1-2.4-3.1c-0.1,0-0.1,0.1-0.2,0.1c-0.6-0.3-1.3,0.4-0.9,1c0,0,0,0.1,0,0.1C130.7,243.7,131.2,244.6,131.9,244.7z"/>
	<path class="st4" d="M158.7,254.5c1.4,0.2,2.5-1.1,2-2.4c0-0.1-0.1-0.2-0.1-0.3c-0.5-1.4-2.3-1.3-3-0.2c-0.1,0-0.2,0-0.3,0.1
		c-0.4,0.1-0.6,0.7-0.1,0.8C157,253.4,157.7,254.3,158.7,254.5z"/>
</g>
</svg>
