<svg width="398px" height="415px" viewBox="85 76 398 415" version="1.1" xmlns="http://www.w3.org/2000/svg" xmlns:xlink="http://www.w3.org/1999/xlink">
    <!-- Generator: Sketch 40.1 (33804) - http://www.bohemiancoding.com/sketch -->
    <desc>Created with Sketch.</desc>
    <defs></defs>
    <g id="TradeIQ" stroke="none" stroke-width="1" fill="none" fill-rule="evenodd" transform="translate(85.000000, 76.000000)">
        <path d="M81.4,390.5 C78.1,383.2 73,376.8 67.4,370.8 C61.8,364.8 55.9,359.1 50,353.2 C47.1,350.3 44.2,347.3 41.3,344.2 C39.9,342.7 38.5,341.1 37.1,339.6 C36.3,338.6 35.8,338 35.1,337.1 C34.4,336.2 33.8,335.3 33.2,334.4 C28.4,327.2 24.8,319.6 21.5,311.8 C18.2,304.1 15.4,296.1 13,288.1 C8.1,272.1 4.6,255.7 2.4,239 C0.3,222.4 -0.4,205.5 0.5,188.8 C1.5,172 4.1,155.3 8.8,139 C13.5,122.8 20.2,107.1 28.9,92.5 C37.6,78 48.3,64.6 60.5,52.9 C72.7,41.2 86.3,31 100.9,22.4 C115.7,13.7 132,7.8 148.7,4.4 C165.4,1 182.5,0.1 199.5,1.1 C216.5,2.2 233.3,5.5 249.5,10.7 C265.7,15.9 281.2,23.3 295.6,32.7 C309.9,42.1 322.9,53.7 333.5,67.5 C344.1,81.2 352.2,97 356.7,113.9 C361.2,130.8 360.210533,162.956979 360.515799,163.585469 C363.043866,168.790312 368.1,179.2 368.1,179.2 C370.9,185 373.6,190.9 376.4,196.8 C379.1,202.7 381.8,208.6 384.4,214.5 C387,220.5 389.6,226.4 392,232.6 C393.2,235.7 394.4,238.8 395.5,242.1 C395.8,242.9 396,243.8 396.3,244.7 C396.5,245.7 397,246.980555 397,248.692749 C397,250 396.9,251 396.8,251.4 C396.6,252.3 396.4,253 396.2,253.6 C395.7,254.9 395.2,255.8 394.7,256.7 C392.6,260.2 390.4,262.8 388.1,265.4 C385.8,268 383.5,270.4 381.2,272.8 C376.5,277.5 371.7,282 366.9,286.3 C364.5,288.5 362,290.6 359.5,292.7 C357,294.8 357.626504,294.103434 354.165919,297.145049 C354.342454,300.899821 354.421227,304.618884 354.5,308.4 C354.6,313.1 354.6,317.9 354.6,322.6 C354.5,332.1 354,341.6 353,351.1 C352.4,355.9 351.7,360.7 350.6,365.5 C349.4,370.3 348.2,375.2 344.9,380 C344,381.2 343,382.4 341.6,383.4 L340.6,384.1 C338.9,385 338.4,385.2 337.7,385.5 C335.2,386.5 332.7,387.1 330.2,387.6 C325.3,388.5 320.5,388.9 315.7,389.1 C306.1,389.5 296.6,389 287.2,388.1 C277.8,387.2 268.4,385.8 259.2,384 C240.7,380.4 222.4,375.3 205.3,367.4 L205.8,366.1 C214.5,369.5 223.4,372.2 232.5,374.4 C241.5,376.6 250.7,378.3 259.9,379.7 C269.1,381 278.4,381.9 287.6,382.4 C296.9,382.8 306.1,382.9 315.3,382.2 C319.9,381.8 324.4,381.3 328.7,380.3 C330.8,379.8 332.9,379.2 334.7,378.4 C335.1,378.2 335.6,378 335.9,377.8 C337.4,376.8 337.9,376.2 338.3,375.5 C340.2,372.5 341.3,368.1 342.1,363.8 C342.9,359.4 343.4,354.9 343.7,350.4 C344.3,341.3 344.3,332 344.1,322.8 C344,318.2 343.8,313.5 343.6,308.9 C343.4,304.3 343,299.6 342.7,295.1 L342.5,292.3 L344.8,290.3 C347.2,288.2 349.5,286.1 351.9,283.9 C354.3,281.7 356.6,279.6 358.9,277.4 C363.5,273 368.1,268.6 372.4,264 C374.6,261.7 376.6,259.4 378.6,257.1 C380.5,254.8 382.4,252.4 383.5,250.3 C383.910519,249.187046 383.824696,248.774087 383.7,248.4 C383.5,247.8 383.3,247.1 383,246.4 C382,243.6 380.8,240.7 379.6,237.8 C377.2,232 374.5,226.1 371.9,220.3 L363.8,202.8 L347.4,167.9 L346,166 L346.2,164 C348.1,148.4 347.3,132.5 343.4,117.3 C339.6,102.1 332.5,87.9 323.1,75.3 C313.6,62.7 301.8,51.8 288.6,42.9 C275.4,34 260.9,26.9 245.7,21.8 C230.5,16.7 214.6,13.4 198.6,12.2 C182.6,11 166.4,11.7 150.7,14.8 C135,17.9 119.7,23.2 105.9,31.2 C91.9,39.3 78.8,48.9 67.1,60 C55.4,71.1 45.1,83.7 36.7,97.4 C28.3,111.1 21.7,126 17.1,141.5 C12.5,157 9.8,173.1 8.7,189.3 C7.6,205.5 8.2,221.9 10.1,238.1 C12.1,254.3 15.3,270.3 20,286 C22.3,293.8 25,301.5 28.1,309 C31.2,316.5 34.7,323.9 39,330.5 C39.5,331.3 40.1,332.1 40.6,332.9 C41.1,333.6 41.9,334.6 42.4,335.2 L46.3,340 C48.9,343.2 51.6,346.3 54.3,349.4 C59.7,355.6 65.4,361.6 70.7,368.1 C76,374.5 81,381.6 84,389.5 C87.1,397.4 87.9,406.1 87.2,414.4 L85.9,414.2 C86.1,406 84.8,397.8 81.4,390.5 Z" id="Head" fill="#FFFFFF"></path>
        <g id="EarthBrain" transform="translate(84.000000, 43.000000)" fill="#FFFFFF">
            <path d="M197.214545,154.197727 C197.214545,156.206818 195.709091,159.094886 194.956364,160.978409 C194.830909,161.229545 194.705455,161.480682 194.705455,161.731818 C194.329091,161.355114 193.450909,161.480682 193.2,161.982955 C192.698182,162.861932 192.447273,163.740909 192.196364,164.619886 C191.945455,164.745455 191.82,164.996591 191.694545,165.122159 C191.443636,165.75 191.318182,166.126705 191.192727,166.754545 C191.067273,166.880114 190.941818,167.13125 190.816364,167.256818 C190.063636,168.386932 189.687273,169.642614 188.934545,170.898295 C187.805455,172.907386 185.672727,174.163068 184.669091,176.297727 C184.292727,177.051136 185.170909,178.055682 186.049091,177.678977 C187.68,176.925568 188.934545,175.167614 190.063636,173.786364 C190.314545,173.786364 190.565455,173.535227 190.690909,173.284091 C190.816364,173.032955 190.816364,172.907386 190.941818,172.65625 C191.82,171.400568 192.572727,169.642614 192.823636,168.261364 C192.949091,167.759091 193.074545,167.256818 193.325455,166.754545 C193.701818,166.252273 193.952727,165.75 194.203636,165.122159 C194.454545,164.871023 194.705455,164.745455 194.956364,164.494318 C195.709091,163.740909 195.96,162.485227 196.336364,161.60625 C197.214545,159.471591 198.343636,156.457955 198.092727,154.197727 C197.967273,153.569886 197.214545,153.695455 197.214545,154.197727 L197.214545,154.197727 Z" id="Shape"></path>
            <path d="M122.443636,40.3073864 C122.192727,39.9306818 121.816364,39.8051136 121.063636,39.6795455 C119.934545,39.5539773 119.307273,41.1863636 120.436364,41.5630682 C120.561818,41.5630682 120.687273,41.8142045 120.812727,41.9397727 C120.687273,42.5676136 120.812727,43.0698864 121.189091,43.6977273 C121.690909,44.4511364 122.067273,45.0789773 122.694545,45.7068182 C123.321818,46.3346591 124.074545,46.7113636 123.823636,47.7159091 C123.572727,48.4693182 124.074545,49.5994318 124.827273,49.8505682 C124.827273,49.9761364 124.701818,49.9761364 124.701818,50.1017045 C124.576364,50.3528409 124.450909,50.4784091 124.325455,50.7295455 C124.074545,51.2318182 123.949091,51.7340909 123.949091,52.2363636 C123.949091,52.9897727 124.952727,53.4920455 125.58,53.2409091 C127.085455,52.6130682 128.716364,51.8596591 129.469091,50.4784091 C129.72,50.3528409 129.970909,50.1017045 130.347273,49.8505682 C130.849091,49.3482955 130.472727,48.34375 129.72,48.34375 C129.218182,48.34375 128.716364,48.2181818 128.214545,48.2181818 C128.465455,46.9625 126.458182,45.8323864 125.078182,44.8278409 C124.701818,44.5767045 123.698182,43.1954545 123.321818,42.5676136 C123.070909,42.1909091 123.070909,41.9397727 122.945455,41.5630682 L122.945455,41.5630682 C123.070909,40.8096591 122.82,40.4329545 122.443636,40.3073864 L122.443636,40.3073864 Z" id="Shape"></path>
            <path d="M121.690909,45.7068182 C121.44,45.2045455 120.687273,45.0789773 120.06,45.0789773 C119.683636,44.9534091 119.307273,44.8278409 118.930909,45.0789773 C118.303636,45.4556818 118.052727,45.8323864 118.052727,46.5857955 C118.052727,46.7113636 118.052727,46.8369318 118.178182,46.9625 C117.801818,47.0880682 117.676364,47.4647727 117.676364,47.8414773 C117.676364,48.2181818 117.927273,48.5948864 118.303636,48.7204545 C118.052727,48.9715909 117.927273,49.3482955 117.927273,49.725 C117.801818,50.3528409 118.554545,50.9806818 119.181818,50.7295455 C120.06,50.3528409 120.938182,50.1017045 121.690909,49.5994318 C122.067273,49.3482955 122.067273,48.9715909 121.941818,48.5948864 C121.816364,48.34375 121.690909,48.0926136 121.565455,47.9670455 C122.067273,47.2136364 122.067273,46.4602273 121.690909,45.7068182 L121.690909,45.7068182 Z" id="Shape"></path>
            <path d="M146.154545,67.4301136 C145.025455,67.1789773 144.398182,68.6857955 145.276364,69.1880682 C145.401818,69.3136364 145.401818,69.3136364 145.527273,69.4392045 C145.527273,69.4392045 145.527273,69.4392045 145.401818,69.4392045 C145.401818,69.4392045 145.527273,69.5647727 145.527273,69.4392045 C145.652727,69.8159091 145.778182,70.0670455 145.778182,70.3181818 C145.778182,70.9460227 146.154545,71.5738636 146.907273,71.4482955 C147.409091,71.4482955 147.785455,70.9460227 147.785455,70.44375 C147.910909,69.8159091 147.910909,69.3136364 147.785455,68.8113636 C147.534545,68.1835227 146.907273,67.5556818 146.154545,67.4301136 L146.154545,67.4301136 Z" id="Shape"></path>
            <path d="M139.129091,69.1880682 L139.129091,69.1880682 C139.003636,68.8113636 138.878182,68.6857955 138.501818,68.5602273 C138,68.4346591 137.623636,68.8113636 137.749091,69.3136364 C137.749091,69.4392045 137.874545,69.6903409 137.874545,69.8159091 L138,69.9414773 C138.125455,70.0670455 138,69.9414773 138,69.9414773 C138.125455,70.5693182 139.129091,70.6948864 139.254545,69.9414773 L139.254545,69.4392045 C139.254545,69.3136364 139.129091,69.3136364 139.129091,69.1880682 L139.129091,69.1880682 Z" id="Shape"></path>
            <path d="M155.814545,71.1971591 C155.689091,71.1971591 155.563636,71.0715909 155.312727,71.0715909 C154.810909,71.0715909 154.434545,71.1971591 154.183636,71.5738636 C154.058182,71.5738636 154.058182,71.4482955 153.932727,71.4482955 L153.932727,71.4482955 C153.556364,71.3227273 153.18,71.3227273 152.803636,71.5738636 C152.301818,71.825 152.176364,72.5784091 152.552727,72.9551136 C152.803636,73.3318182 153.18,73.5829545 153.556364,73.8340909 C153.932727,74.0852273 154.56,74.4619318 155.061818,74.3363636 C155.814545,74.2107955 156.316364,73.5829545 156.316364,72.8295455 C156.316364,72.4528409 156.316364,72.2017045 156.190909,71.9505682 C156.316364,71.5738636 156.190909,71.3227273 155.814545,71.1971591 L155.814545,71.1971591 Z" id="Shape"></path>
            <path d="M203.612727,109.11875 C202.86,108.993182 202.358182,109.495455 202.232727,110.123295 C200.978182,111.002273 199.096364,112.383523 198.343636,110.751136 C197.716364,109.495455 197.34,108.490909 196.336364,107.360795 C195.081818,105.979545 193.701818,105.100568 192.823636,103.342614 C192.321818,102.338068 191.569091,101.459091 190.941818,100.580114 C190.690909,97.4409091 189.310909,94.1761364 187.178182,92.0414773 C187.178182,91.9159091 187.052727,91.6647727 187.052727,91.5392045 C188.181818,92.7948864 189.185455,94.1761364 190.189091,95.5573864 C191.443636,97.3153409 192.447273,98.9477273 194.078182,100.454545 C196.336364,102.714773 199.096364,104.849432 198.845455,108.365341 C198.845455,108.867614 199.096364,109.495455 199.723636,109.621023 L200.1,109.621023 C200.727273,109.621023 201.354545,109.369886 201.354545,108.742045 C201.856364,104.096023 203.989091,99.8267045 204.741818,95.1806818 C204.992727,93.2971591 204.867273,91.1625 204.867273,89.2789773 C204.867273,87.01875 202.483636,85.5119318 202.358182,83.1261364 C202.358182,82.4982955 201.981818,82.1215909 201.605455,81.8704545 C205.118182,81.7448864 204.741818,74.4619318 204.741818,72.4528409 C204.741818,70.0670455 205.118182,67.4301136 204.24,65.1698864 C203.361818,62.6585227 201.354545,60.5238636 200.350909,58.0125 C197.716364,51.7340909 194.830909,46.0835227 190.690909,40.6840909 C182.912727,30.3875 172.123636,22.4767045 161.209091,15.5704545 C155.94,12.1801136 150.169091,9.29204545 144.272727,7.15738636 C137.623636,4.77159091 131.350909,2.63693182 124.2,2.00909091 C123.447273,2.00909091 122.945455,2.13465909 122.569091,2.51136364 C122.192727,2.26022727 121.941818,1.88352273 121.565455,1.50681818 C120.561818,0.251136364 118.429091,1.75795455 119.432727,3.01363636 C120.06,3.76704545 120.938182,4.39488636 121.690909,4.89715909 C121.941818,5.525 122.443636,6.02727273 123.321818,6.15284091 L123.572727,6.15284091 C124.952727,7.03181818 127.210909,8.66420455 127.210909,9.66875 C127.210909,12.5568182 131.601818,13.4357955 133.86,14.4403409 C134.612727,14.8170455 138.250909,15.19375 137.874545,16.0727273 C137.498182,16.8261364 137.749091,17.95625 138.376364,18.4585227 C139.505455,19.3375 140.509091,19.5886364 141.889091,19.7142045 C143.018182,19.8397727 144.021818,20.0909091 144.9,20.3420455 C144.649091,21.5977273 144.649091,23.3556818 144.774545,24.4857955 C144.9,25.9926136 145.527273,26.6204545 146.781818,27.625 C146.530909,27.3738636 148.036364,29.3829545 146.907273,28.1272727 C146.656364,27.8761364 146.28,27.625 145.903636,27.4994318 C145.276364,27.3738636 144.272727,27.3738636 143.143636,27.2482955 C143.52,27.1227273 143.896364,26.9971591 144.147273,26.7460227 C145.025455,25.7414773 144.649091,24.1090909 143.645455,23.3556818 C143.269091,22.9789773 142.767273,23.1045455 142.265455,23.3556818 C140.132727,24.6113636 137.372727,21.4721591 135.365455,22.4767045 C133.483636,23.48125 131.1,24.3602273 130.598182,26.6204545 C130.347273,27.7505682 130.221818,28.7551136 130.472727,29.8852273 C130.598182,31.2664773 130.598182,32.3965909 129.72,33.4011364 C129.469091,33.6522727 129.092727,34.1545455 128.967273,34.53125 C128.590909,36.2892045 129.970909,39.9306818 131.476364,41.0607955 C132.229091,41.5630682 133.107273,41.3119318 133.609091,40.5585227 C133.86,40.05625 134.361818,38.5494318 135.24,38.675 C136.243636,38.8005682 137.749091,40.5585227 137.623636,41.5630682 C137.498182,42.3164773 138.376364,43.3210227 139.254545,42.81875 C139.505455,42.6931818 139.630909,42.6931818 139.756364,42.5676136 C140.509091,42.81875 141.136364,42.4420455 141.387273,41.6886364 C141.638182,40.8096591 142.265455,39.3028409 141.889091,38.2982955 C141.136364,36.4147727 138.250909,36.4147727 138.627273,33.9034091 C138.752727,33.0244318 138.752727,32.6477273 138.501818,31.76875 C138.501818,31.6431818 137.498182,29.2573864 137.749091,29.2573864 C140.258182,30.0107955 139.254545,32.7732955 139.881818,34.53125 C140.76,36.9170455 144.649091,36.5403409 146.28,35.2846591 C146.405455,35.1590909 148.036364,33.6522727 148.412727,34.1545455 C148.663636,34.6568182 149.667273,34.9079545 148.538182,35.6613636 C147.409091,36.5403409 146.029091,37.4193182 145.527273,38.8005682 C145.401818,39.3028409 145.527273,39.8051136 146.029091,40.1818182 C146.656364,40.5585227 146.154545,41.1863636 146.530909,41.8142045 C147.910909,44.0744318 144.272727,44.2 142.892727,44.0744318 C141.889091,43.9488636 141.136364,44.3255682 140.258182,44.7022727 C140.007273,44.8278409 138,44.3255682 137.121818,43.8232955 C136.996364,43.5721591 136.996364,43.1954545 137.121818,42.81875 C137.247273,41.8142045 135.992727,41.3119318 135.24,42.0653409 C134.612727,42.6931818 134.612727,43.3210227 134.863636,43.9488636 C134.738182,44.9534091 134.863636,46.2090909 135.867273,46.4602273 C136.369091,46.5857955 136.745455,46.7113636 137.247273,46.8369318 C135.365455,47.5903409 135.365455,49.0971591 133.734545,50.3528409 C132.48,51.2318182 130.849091,50.4784091 130.096364,51.9852273 C129.469091,53.3664773 127.085455,53.2409091 125.956364,54.3710227 C125.454545,54.8732955 124.952727,55.7522727 125.58,56.3801136 C127.461818,57.7613636 129.343636,58.5147727 130.221818,60.9005682 C131.1,63.1607955 123.698182,62.6585227 123.070909,62.7840909 C122.192727,62.9096591 121.941818,63.2863636 121.690909,63.7886364 C121.565455,63.6630682 121.44,63.6630682 121.063636,63.5375 C120.812727,63.4119318 120.436364,63.6630682 120.436364,63.9142045 C120.06,65.6721591 120.561818,67.1789773 121.063636,68.8113636 C121.44,70.0670455 121.565455,71.0715909 121.314545,72.4528409 C121.189091,72.7039773 121.314545,73.3318182 121.565455,73.5829545 C122.192727,74.3363636 123.196364,74.3363636 124.074545,74.4619318 C125.203636,74.5875 126.332727,76.3454545 127.587273,76.5965909 C127.210909,76.5965909 126.709091,76.7221591 126.207273,77.35 C125.078182,78.73125 125.830909,81.2426136 124.450909,82.6238636 C124.2,82.3727273 123.823636,82.1215909 123.196364,81.9960227 C122.569091,81.8704545 122.067273,82.2471591 121.816364,82.7494318 C120.436364,85.2607955 120.938182,87.7721591 118.805455,90.0323864 C117.801818,91.1625 116.547273,92.2926136 115.669091,93.4227273 C114.665455,94.6784091 113.285455,95.5573864 112.156364,96.6875 C110.4,98.4454545 110.274545,101.584659 109.02,103.719318 C107.64,105.979545 110.4,109.369886 108.518182,111.127841 C108.392727,111.127841 108.267273,111.253409 108.141818,111.378977 C108.016364,111.504545 107.890909,111.504545 107.765455,111.630114 C106.887273,112.383523 107.138182,113.2625 107.765455,113.764773 C107.263636,114.769318 107.138182,115.773864 107.138182,117.029545 C107.138182,117.40625 107.263636,117.782955 107.514545,117.908523 C107.514545,120.043182 108.141818,122.177841 110.149091,123.684659 C111.278182,124.563636 112.156364,124.940341 112.532727,126.447159 C112.783636,127.451705 113.034545,128.205114 113.536364,128.958523 C114.54,130.339773 117.049091,132.725568 118.68,133.478977 C119.683636,133.98125 120.812727,133.98125 121.690909,134.483523 C122.82,135.111364 124.074545,135.739205 125.329091,136.115909 C126.709091,136.492614 126.458182,136.994886 127.712727,136.74375 C129.218182,136.492614 130.598182,136.115909 132.103636,135.990341 C133.358182,135.864773 136.870909,136.618182 138,135.488068 C139.003636,134.483523 140.132727,133.730114 141.387273,133.102273 L142.014545,133.102273 C143.269091,133.227841 145.652727,130.088636 147.032727,131.721023 C147.785455,132.725568 148.914545,132.474432 149.290909,133.730114 C150.169091,136.492614 151.925455,137.120455 154.810909,136.367045 C157.32,135.739205 155.061818,138.878409 154.685455,140.134091 C154.183636,141.892045 153.932727,144.026705 153.681818,145.910227 C153.430909,147.668182 154.56,149.426136 155.312727,150.932955 C156.316364,152.816477 156.818182,154.7 157.696364,156.583523 C158.574545,158.467045 157.32,162.610795 156.943636,164.745455 C156.692727,166.126705 156.441818,167.633523 155.563636,168.889205 C154.936364,169.89375 153.681818,170.647159 153.18,171.651705 C152.176364,173.284091 152.301818,174.790909 152.427273,176.674432 C152.678182,179.060227 152.678182,181.948295 151.674545,184.208523 C151.172727,185.464205 150.921818,186.719886 151.047273,187.975568 C151.047273,188.226705 151.298182,188.603409 151.549091,188.854545 C151.298182,189.482386 151.172727,189.984659 151.047273,190.6125 C150.42,192.998295 149.918182,196.1375 150.043636,198.648864 C150.043636,199.151136 150.670909,199.778977 151.298182,199.653409 C155.187273,198.774432 158.449091,197.267614 161.083636,194.379545 C162.212727,193.249432 163.216364,192.119318 164.972727,191.868182 C165.6,191.742614 166.478182,191.868182 167.105455,191.617045 C169.363636,190.738068 170.618182,188.477841 171.998182,186.719886 C173.378182,184.961932 174.256364,183.078409 175.134545,181.069318 C176.389091,178.306818 178.145455,176.8 180.403636,174.790909 C182.285455,173.032955 183.665455,170.772727 185.421818,168.889205 C186.550909,167.633523 188.056364,166.628977 188.558182,164.996591 C190.063636,160.099432 191.694545,155.076705 192.447273,149.928409 C192.572727,148.798295 192.698182,147.542614 192.823636,146.4125 C193.074545,145.03125 194.705455,143.65 195.332727,142.394318 C196.712727,139.882955 197.841818,137.497159 198.970909,134.734659 C199.974545,131.972159 201.229091,129.335227 202.232727,126.698295 C203.236364,123.935795 203.863636,121.047727 205.118182,118.410795 C205.996364,116.652841 205.745455,113.764773 205.870909,111.88125 C205.745455,110.123295 204.992727,109.369886 203.612727,109.11875 L203.612727,109.11875 Z M196.210909,80.8659091 C197.089091,80.9914773 197.967273,80.8659091 198.72,81.1170455 C199.347273,81.3681818 199.849091,81.7448864 200.476364,81.8704545 C199.974545,81.8704545 199.347273,82.2471591 199.096364,82.7494318 C198.469091,83.7539773 198.218182,84.6329545 197.967273,85.7630682 C197.841818,86.1397727 197.841818,86.6420455 197.841818,87.1443182 C196.336364,85.2607955 195.332727,82.875 194.705455,80.4892045 C195.081818,80.4892045 195.583636,80.7403409 196.210909,80.8659091 L196.210909,80.8659091 Z M169.614545,56.5056818 C170.367273,56.2545455 170.618182,55.7522727 170.618182,55.1244318 C170.869091,55.7522727 171.370909,56.2545455 172.123636,56.7568182 C173.754545,57.5102273 175.009091,57.6357955 176.012727,59.2681818 C176.890909,60.5238636 177.392727,61.6539773 175.385455,62.0306818 C173.252727,62.4073864 170.869091,62.5329545 168.736364,63.0352273 L168.610909,63.0352273 C167.356364,61.5284091 166.98,60.2727273 167.230909,58.1380682 C167.356364,57.1335227 166.854545,56.1289773 166.854545,55.1244318 C167.607273,56.1289773 168.36,57.0079545 169.614545,56.5056818 L169.614545,56.5056818 Z M172.123636,79.4846591 C170.241818,80.1125 166.854545,79.1079545 165.474545,80.9914773 C164.847273,81.8704545 164.847273,83.0005682 163.718182,82.7494318 C161.961818,82.2471591 159.829091,81.1170455 158.323636,80.1125 C156.818182,79.2335227 155.438182,77.8522727 153.430909,77.7267045 C152.427273,77.6011364 152.552727,77.2244318 151.8,76.5965909 C150.921818,75.8431818 150.670909,77.2244318 151.298182,75.4664773 C153.18,70.3181818 143.896364,73.5829545 142.14,74.0852273 C140.634545,74.5875 139.129091,74.5875 137.623636,74.8386364 C136.243636,75.0897727 135.114545,75.7176136 133.86,76.2198864 C132.354545,76.7221591 130.598182,76.5965909 129.343636,77.35 C128.841818,77.0988636 128.214545,76.7221591 127.712727,76.5965909 L128.214545,76.5965909 C129.72,76.0943182 131.350909,75.7176136 132.856364,75.2153409 C133.86,74.8386364 134.738182,73.7085227 134.487273,72.7039773 C134.110909,70.44375 134.110909,68.6857955 135.992727,67.0534091 C137.121818,66.0488636 139.254545,65.6721591 139.756364,64.1653409 L139.756364,63.6630682 C140.76,62.7840909 142.390909,62.4073864 143.52,62.5329545 C144.398182,62.6585227 144.9,62.4073864 145.401818,62.0306818 C146.28,63.4119318 147.032727,64.7931818 148.914545,65.1698864 C150.921818,65.6721591 152.678182,65.6721591 153.932727,67.5556818 C154.434545,68.3090909 154.936364,69.0625 155.563636,69.8159091 C156.065455,70.44375 156.190909,70.5693182 156.190909,70.5693182 C156.190909,71.0715909 156.441818,71.5738636 157.069091,71.4482955 C157.445455,71.3227273 157.821818,71.3227273 158.072727,70.9460227 C158.198182,70.6948864 158.323636,70.44375 158.198182,70.1926136 C157.570909,69.0625 156.943636,67.8068182 156.316364,66.6767045 L156.316364,66.6767045 C155.689091,65.6721591 154.936364,64.6676136 154.058182,63.9142045 C153.430909,63.4119318 152.301818,63.4119318 151.549091,63.4119318 C151.172727,63.0352273 150.796364,62.6585227 150.42,62.2818182 C149.165455,61.1517045 148.161818,60.5238636 147.409091,58.8914773 C147.409091,58.8914773 147.409091,58.7659091 147.283636,58.7659091 C148.914545,58.5147727 151.047273,59.39375 152.050909,60.3982955 C153.681818,62.0306818 155.814545,62.9096591 156.818182,65.2954545 C157.194545,66.0488636 157.570909,67.8068182 158.7,68.1835227 C159.201818,68.3090909 160.832727,68.6857955 160.958182,68.9369318 C161.710909,69.6903409 161.961818,70.8204545 162.84,71.4482955 C164.094545,72.4528409 166.854545,72.9551136 167.230909,70.8204545 C167.356364,69.8159091 166.603636,69.0625 165.976364,68.4346591 C165.725455,68.1835227 164.345455,66.8022727 164.847273,66.5511364 C165.6,66.3 166.478182,65.9232955 167.356364,65.7977273 C167.356364,65.9232955 167.481818,66.1744318 167.481818,66.4255682 C167.858182,67.8068182 167.105455,70.1926136 169.112727,70.8204545 C171.621818,71.5738636 174.256364,71.4482955 176.765455,71.3227273 C181.156364,70.9460227 179.525455,74.5875 180.278182,77.2244318 C181.281818,81.1170455 174.507273,78.73125 172.123636,79.4846591 L172.123636,79.4846591 Z" id="Shape"></path>
            <path d="M145.652727,64.91875 C146.029091,64.7931818 146.029091,64.2909091 145.778182,64.0397727 C145.903636,63.9142045 145.903636,63.6630682 145.652727,63.5375 C145.527273,63.5375 145.401818,63.5375 145.401818,63.4119318 C145.150909,63.4119318 145.025455,63.5375 145.025455,63.6630682 C145.025455,63.7886364 144.9,64.0397727 144.9,64.1653409 C144.774545,64.4164773 144.9,64.6676136 145.150909,64.7931818 C145.150909,64.91875 145.401818,64.91875 145.652727,64.91875 L145.652727,64.91875 Z" id="Shape"></path>
            <path d="M82.0472727,7.03181818 C82.0472727,7.03181818 81.9218182,7.03181818 82.0472727,7.03181818 L81.9218182,7.15738636 L81.9218182,7.15738636 L81.9218182,7.28295455 L81.9218182,7.28295455 L81.9218182,7.40852273 C82.0472727,7.65965909 82.2981818,7.78522727 82.5490909,7.91079545 L82.5490909,7.91079545 C82.8,7.91079545 82.9254545,8.03636364 83.1763636,8.03636364 C83.5527273,8.03636364 83.8036364,8.03636364 84.18,7.91079545 C84.8072727,7.65965909 84.8072727,6.90625 84.18,6.52954545 C83.6781818,6.27840909 83.1763636,6.15284091 82.6745455,6.27840909 C82.4236364,6.27840909 82.2981818,6.27840909 82.0472727,6.52954545 L82.0472727,6.52954545 L82.0472727,6.52954545 L81.9218182,6.65511364 L81.9218182,6.65511364 L81.9218182,6.78068182 L81.9218182,6.78068182 L82.1727273,6.90625 C82.1727273,6.90625 82.4236364,6.90625 82.4236364,7.03181818 L82.4236364,7.03181818 C82.2981818,6.90625 82.0472727,6.90625 82.0472727,7.03181818 L82.0472727,7.03181818 Z" id="Shape"></path>
            <path d="M84.5563636,9.54318182 C85.3090909,9.66875 85.56,8.41306818 84.8072727,8.41306818 C84.0545455,8.2875 83.8036364,9.54318182 84.5563636,9.54318182 L84.5563636,9.54318182 Z" id="Shape"></path>
            <path d="M79.2872727,22.4767045 C79.2872727,22.1 79.1618182,21.8488636 79.0363636,21.4721591 C78.9109091,20.9698864 78.66,20.71875 78.2836364,20.4676136 C78.1581818,20.2164773 77.6563636,20.0909091 77.4054545,20.3420455 C76.9036364,20.3420455 76.2763636,20.71875 75.9,21.2210227 L75.9,21.2210227 C75.7745455,21.2210227 75.5236364,21.0954545 75.3981818,21.2210227 C74.7709091,21.3465909 74.1436364,21.7232955 74.1436364,22.4767045 C74.0181818,23.7323864 75.3981818,24.9880682 76.2763636,25.8670455 C77.1545455,26.8715909 78.5345455,26.4948864 79.1618182,25.6159091 C79.4127273,25.7414773 79.7890909,25.7414773 80.04,25.6159091 C80.4163636,25.6159091 80.7927273,25.3647727 80.7927273,24.9880682 C81.1690909,23.8579545 80.1654545,23.2301136 79.2872727,22.4767045 L79.2872727,22.4767045 Z" id="Shape"></path>
            <path d="M90.2018182,11.9289773 C89.9509091,12.3056818 90.2018182,12.8079545 90.5781818,13.0590909 C91.08,13.3102273 91.7072727,13.3102273 92.0836364,13.0590909 C92.2090909,12.9335227 92.46,12.8079545 92.5854545,12.6823864 C92.7109091,12.5568182 92.7109091,12.43125 92.8363636,12.3056818 L92.8363636,12.3056818 L92.8363636,12.3056818 C92.9618182,11.9289773 92.7109091,11.3011364 92.2090909,11.4267045 C91.8327273,11.4267045 91.5818182,11.5522727 91.3309091,11.6778409 C91.3309091,11.6778409 91.3309091,11.6778409 91.2054545,11.6778409 C90.9545455,11.3011364 90.4527273,11.5522727 90.2018182,11.9289773 L90.2018182,11.9289773 Z" id="Shape"></path>
            <path d="M90.0763636,8.78977273 C89.1981818,8.66420455 89.0727273,9.91988636 89.8254545,10.0454545 C90.7036364,10.1710227 90.9545455,8.91534091 90.0763636,8.78977273 L90.0763636,8.78977273 Z" id="Shape"></path>
            <path d="M88.9472727,11.5522727 C89.4490909,11.5522727 89.4490909,10.7988636 88.9472727,10.6732955 L88.6963636,10.6732955 L88.5709091,10.6732955 L88.32,10.6732955 L88.32,10.6732955 C88.32,10.5477273 88.1945455,10.4221591 88.1945455,10.2965909 C88.1945455,10.1710227 87.9436364,10.0454545 87.8181818,10.2965909 C87.6927273,10.5477273 87.4418182,11.05 87.6927273,11.3011364 C87.9436364,11.6778409 88.4454545,11.6778409 88.9472727,11.5522727 L88.9472727,11.5522727 Z" id="Shape"></path>
            <path d="M89.3236364,8.91534091 C89.7,8.91534091 89.9509091,8.66420455 90.2018182,8.41306818 C90.0763636,8.53863636 90.3272727,8.41306818 90.3272727,8.2875 L90.4527273,8.2875 L90.7036364,8.2875 C91.4563636,8.16193182 91.4563636,7.15738636 90.7036364,7.03181818 C90.3272727,6.90625 89.9509091,6.90625 89.4490909,7.03181818 C89.3236364,7.03181818 89.1981818,7.15738636 89.0727273,7.15738636 C88.6963636,7.28295455 88.5709091,7.53409091 88.4454545,7.91079545 C88.32,8.53863636 88.8218182,8.91534091 89.3236364,8.91534091 L89.3236364,8.91534091 Z" id="Shape"></path>
            <path d="M112.281818,23.6068182 C113.787273,22.7278409 116.798182,22.7278409 116.296364,20.2164773 C116.170909,19.4630682 115.418182,19.3375 114.665455,18.9607955 C115.292727,19.2119318 117.049091,17.95625 117.174545,17.4539773 L117.174545,17.3284091 C118.052727,17.8306818 119.056364,18.0818182 120.06,18.4585227 C120.185455,18.5840909 120.436364,18.5840909 120.561818,18.5840909 C121.565455,18.8352273 122.192727,17.2028409 121.063636,16.8261364 C120.812727,16.7005682 120.687273,16.7005682 120.436364,16.575 C120.310909,16.575 120.310909,16.4494318 120.185455,16.4494318 C120.310909,16.3238636 120.310909,16.1982955 120.436364,16.0727273 C120.812727,15.19375 119.809091,14.6914773 119.056364,15.0681818 C118.930909,15.19375 118.805455,15.19375 118.68,15.19375 C118.554545,15.19375 118.554545,15.19375 118.429091,15.0681818 C118.178182,14.8170455 117.676364,14.9426136 117.425455,15.19375 L117.174545,15.19375 C117.174545,15.0681818 117.049091,14.8170455 117.049091,14.6914773 C116.547273,13.5613636 115.041818,13.5613636 115.543636,12.1801136 C115.669091,11.6778409 115.543636,11.3011364 115.292727,11.05 C114.414545,10.1710227 112.909091,10.2965909 111.654545,10.2965909 C111.027273,10.2965909 110.4,10.5477273 109.898182,10.7988636 C109.521818,10.9244318 109.521818,9.91988636 109.145455,9.54318182 C107.514545,8.16193182 105.256364,8.41306818 103.123636,8.2875 C100.614545,8.16193182 98.1054545,7.15738636 95.9727273,8.41306818 C94.8436364,9.04090909 94.9690909,10.5477273 95.5963636,11.3011364 C95.8472727,11.6778409 96.3490909,11.9289773 96.7254545,12.0545455 C97.1018182,12.1801136 97.4781818,12.1801136 97.98,12.3056818 C99.2345455,12.43125 97.98,12.5568182 97.4781818,12.9335227 C95.7218182,14.3147727 95.3454545,14.8170455 95.22,17.0772727 C95.0945455,18.5840909 93.84,19.5886364 93.2127273,20.8443182 C91.7072727,22.1 91.2054545,24.3602273 90.0763636,25.8670455 C89.3236364,26.7460227 87.8181818,31.0153409 89.0727273,32.0198864 C90.9545455,33.6522727 92.9618182,30.7642045 94.2163636,29.7596591 C97.6036364,26.7460227 101.241818,24.9880682 105.883636,26.1181818 C106.761818,26.3693182 107.64,25.6159091 108.267273,25.2392045 C109.396364,24.2346591 111.027273,24.3602273 112.281818,23.6068182 L112.281818,23.6068182 Z" id="Shape"></path>
            <path d="M21.9545455,85.5119318 C22.9581818,85.7630682 23.9618182,84.5073864 22.9581818,83.8795455 C22.8327273,83.8795455 22.8327273,83.7539773 22.7072727,83.7539773 L22.7072727,83.7539773 C22.5818182,83.7539773 22.5818182,83.7539773 22.4563636,83.6284091 C22.2054545,83.3772727 21.9545455,83.2517045 21.7036364,83.0005682 C21.4527273,82.7494318 21.3272727,82.4982955 21.2018182,82.2471591 C21.2018182,82.1215909 21.0763636,81.9960227 21.0763636,81.8704545 C20.5745455,80.8659091 20.1981818,79.6102273 20.0727273,78.8568182 C20.0727273,78.6056818 19.9472727,78.3545455 19.8218182,78.1034091 C19.8218182,77.9778409 19.6963636,77.8522727 19.6963636,77.7267045 C19.1945455,76.0943182 18.0654545,74.5875 16.0581818,74.4619318 C15.0545455,74.4619318 14.4272727,75.4664773 15.3054545,76.0943182 C15.8072727,76.4710227 16.1836364,76.9732955 16.6854545,77.4755682 C17.0618182,77.9778409 17.8145455,78.3545455 18.0654545,78.8568182 C18.1909091,78.9823864 18.1909091,79.2335227 18.3163636,79.4846591 C18.4418182,79.8613636 18.4418182,80.2380682 18.5672727,80.4892045 C18.8181818,81.3681818 18.8181818,82.3727273 19.32,83.1261364 C19.4454545,83.2517045 19.4454545,83.2517045 19.5709091,83.3772727 C19.6963636,83.6284091 19.8218182,83.8795455 20.0727273,84.25625 C20.4490909,84.6329545 20.9509091,84.7585227 21.3272727,84.8840909 C21.4527273,85.3863636 21.7036364,85.5119318 21.9545455,85.5119318 L21.9545455,85.5119318 Z" id="Shape"></path>
            <path d="M80.5418182,11.3011364 C79.5381818,11.3011364 78.1581818,11.1755682 76.9036364,11.1755682 C77.9072727,11.05 78.7854545,10.9244318 79.5381818,10.1710227 C80.2909091,9.16647727 79.9145455,7.65965909 78.9109091,7.15738636 C78.0327273,6.65511364 75.1472727,6.52954545 77.1545455,4.64602273 C78.0327273,3.89261364 78.66,3.26477273 79.2872727,2.38579545 C79.6636364,1.88352273 79.2872727,1.00454545 78.66,0.753409091 C74.0181818,-1.13011364 68.8745455,1.13011364 64.86,3.39034091 C58.4618182,7.03181818 -2.38363636,28.5039773 3.51272727,63.7886364 L3.51272727,63.7886364 L3.51272727,63.7886364 C2.63454545,65.0443182 1.63090909,66.4255682 1.38,67.9323864 C1.25454545,68.4346591 1.25454545,68.9369318 1.12909091,69.5647727 C1.00363636,69.9414773 0.752727273,70.1926136 0.627272727,70.5693182 C0.376363636,71.9505682 0.250909091,73.20625 0.125454545,74.5875 C-0.125454545,76.7221591 0.752727273,78.73125 1.25454545,80.7403409 C2.00727273,83.3772727 2.38363636,86.1397727 3.01090909,88.9022727 C3.63818182,91.5392045 3.76363636,95.5573864 5.52,98.06875 L5.52,98.1943182 C6.14727273,100.077841 6.64909091,101.961364 7.27636364,103.970455 C7.65272727,105.351705 9.03272727,106.481818 10.5381818,106.607386 C11.4163636,106.732955 11.9181818,106.732955 12.7963636,107.109659 C12.42,107.863068 12.1690909,108.616477 12.0436364,109.244318 C11.4163636,112.006818 10.5381818,113.639205 8.65636364,115.648295 C6.9,117.657386 8.02909091,120.419886 7.27636364,122.680114 C6.52363636,125.065909 5.39454545,126.823864 5.39454545,129.335227 C5.39454545,131.344318 7.02545455,134.106818 8.15454545,135.864773 C9.53454545,137.999432 11.2909091,139.757386 12.6709091,141.892045 C13.8,143.775568 14.0509091,144.905682 13.8,146.914773 C13.6745455,147.919318 13.8,148.672727 14.0509091,149.551705 C14.4272727,150.681818 15.18,151.811932 15.5563636,152.942045 C15.9327273,154.197727 16.1836364,155.453409 16.8109091,156.709091 C17.1872727,157.4625 17.8145455,158.215909 18.3163636,158.969318 C19.4454545,160.601705 19.5709091,162.485227 19.9472727,164.36875 C20.9509091,169.391477 21.3272727,174.790909 22.9581818,179.688068 C23.7109091,181.948295 24.9654545,184.082955 25.9690909,186.343182 C26.9727273,188.603409 27.8509091,190.486932 29.9836364,191.868182 C32.1163636,193.249432 34.6254545,194.002841 36.6327273,195.509659 C38.64,197.016477 40.2709091,199.151136 42.1527273,200.783523 C42.78,201.285795 43.2818182,201.913636 43.7836364,202.667045 C44.16,203.546023 44.6618182,204.299432 45.0381818,205.178409 C45.1636364,205.555114 45.4145455,205.931818 45.6654545,206.308523 C45.9163636,206.936364 46.1672727,207.564205 46.2927273,208.192045 C46.92,210.452273 49.68,212.461364 50.9345455,214.344886 C51.1854545,214.721591 51.6872727,214.972727 52.0636364,214.972727 C53.5690909,216.605114 55.0745455,218.2375 56.58,219.995455 C57.3327273,220.874432 58.7127273,219.869886 58.0854545,218.990909 C55.3254545,214.470455 52.44,209.824432 49.4290909,205.429545 C48.0490909,203.420455 46.5436364,201.285795 46.0418182,198.9 C45.7909091,197.895455 46.1672727,196.639773 46.1672727,195.635227 C46.1672727,194.630682 45.4145455,193.751705 45.0381818,192.998295 C44.5363636,191.868182 43.7836364,191.240341 43.6581818,189.984659 C43.4072727,187.975568 44.9127273,189.482386 45.6654545,190.110227 C47.1709091,191.114773 48.5509091,190.989205 50.0563636,190.110227 C51.4363636,189.356818 52.1890909,187.598864 52.8163636,186.343182 C53.1927273,185.589773 53.4436364,184.836364 53.82,184.082955 C54.3218182,182.952841 53.9454545,181.697159 54.5727273,180.567045 C54.8236364,180.190341 54.8236364,179.939205 54.6981818,179.688068 C54.8236364,179.688068 54.9490909,179.5625 55.2,179.5625 C56.0781818,179.311364 56.58,178.683523 57.5836364,178.557955 C57.96,178.557955 58.7127273,178.683523 59.0890909,178.557955 C60.4690909,177.930114 61.4727273,177.176705 62.4763636,176.172159 C63.8563636,174.790909 66.9927273,176.423295 68.7490909,176.046591 C71.3836364,175.41875 73.3909091,173.032955 74.0181818,170.647159 C74.3945455,169.140341 73.6418182,167.256818 73.3909091,165.75 C73.0145455,163.615341 75.0218182,159.973864 76.7781818,158.467045 C78.66,156.709091 81.0436364,154.951136 80.9181818,152.063068 C80.7927273,149.049432 78.7854545,146.286932 75.9,144.905682 C73.8927273,143.901136 71.1327273,143.901136 69.6272727,142.26875 C68.6236364,141.264205 67.8709091,140.259659 66.6163636,139.380682 C65.1109091,138.501705 63.3545455,138.627273 61.7236364,137.873864 C59.9672727,136.994886 58.7127273,135.613636 56.9563636,134.734659 C55.5763636,134.106818 54.0709091,133.855682 52.6909091,133.478977 C50.0563636,132.725568 50.5581818,130.590909 50.6836364,128.45625 C50.9345455,125.317045 49.68,123.559091 47.0454545,121.675568 C45.7909091,120.796591 44.6618182,119.666477 43.4072727,118.913068 C42.0272727,118.034091 40.1454545,118.410795 39.0163636,117.029545 C38.0127273,115.773864 37.1345455,114.64375 36.1309091,113.513636 C34.6254545,112.006818 33.9981818,109.746591 32.9945455,107.863068 C31.8654545,105.728409 30.36,104.598295 27.8509091,105.226136 C26.5963636,105.477273 25.2163636,105.728409 24.7145455,104.347159 C24.4636364,103.844886 24.3381818,103.468182 24.0872727,102.965909 C23.5854545,102.086932 22.7072727,101.207955 21.5781818,100.956818 C18.9436364,100.454545 16.1836364,102.463636 14.3018182,104.849432 L14.1763636,104.723864 C12.9218182,103.970455 10.7890909,104.221591 10.0363636,102.965909 C9.28363636,101.584659 8.40545455,96.8130682 9.15818182,95.6829545 C10.7890909,93.4227273 15.8072727,88.9022727 12.7963636,86.0142045 C12.1690909,85.3863636 7.65272727,83.3772727 9.53454545,82.1215909 C10.9145455,81.2426136 12.2945455,80.8659091 13.1727273,79.2335227 C13.4236364,78.73125 13.1727273,78.1034091 12.7963636,77.7267045 C10.6636364,75.96875 8.53090909,76.7221591 6.27272727,77.6011364 C6.02181818,76.5965909 5.89636364,75.7176136 6.02181818,74.7130682 C6.14727273,73.0806818 7.77818182,71.825 9.03272727,70.6948864 C10.0363636,69.8159091 10.6636364,68.8113636 11.2909091,67.5556818 C12.1690909,66.0488636 13.2981818,65.1698864 14.4272727,63.7886364 C15.9327273,62.0306818 18.0654545,60.1471591 20.1981818,62.5329545 C21.2018182,63.5375 22.7072727,62.2818182 23.2090909,64.2909091 C21.8290909,66.9278409 21.8290909,70.1926136 19.8218182,72.5784091 C18.9436364,73.7085227 20.5745455,74.9642045 21.5781818,73.9596591 C22.8327273,72.5784091 24.84,71.1971591 25.2163636,69.1880682 C25.4672727,67.68125 25.5927273,66.1744318 25.4672727,64.6676136 C26.3454545,63.5375 28.3527273,63.4119318 29.7327273,63.0352273 C31.2381818,62.6585227 32.6181818,61.6539773 33.8727273,60.775 C36.6327273,58.6403409 39.0163636,56.2545455 42.0272727,54.3710227 C44.2854545,52.9897727 45.4145455,52.6130682 48.1745455,53.2409091 C49.4290909,53.4920455 50.5581818,53.4920455 51.8127273,53.1153409 C53.4436364,52.6130682 54.4472727,51.4829545 56.2036364,51.10625 C57.96,50.7295455 58.7127273,51.9852273 60.2181818,52.4875 C61.8490909,53.1153409 63.2290909,50.8551136 63.9818182,49.9761364 C64.7345455,48.9715909 65.4872727,46.9625 64.1072727,46.0835227 C63.2290909,45.4556818 62.2254545,45.3301136 61.2218182,44.9534091 C60.8454545,44.8278409 57.7090909,44.4511364 59.8418182,42.9443182 C60.3436364,42.5676136 60.5945455,42.3164773 60.9709091,41.9397727 C61.3472727,41.4375 61.3472727,40.9352273 60.9709091,40.4329545 C60.0927273,39.0517045 58.8381818,39.0517045 61.4727273,39.3028409 C62.9781818,39.4284091 64.2327273,40.9352273 65.6127273,40.9352273 C67.1181818,41.0607955 68.6236364,40.8096591 69.2509091,42.5676136 C69.5018182,43.4465909 69.8781818,44.2 70.38,44.9534091 C71.0072727,45.9579545 72.3872727,46.4602273 73.5163636,46.0835227 C75.0218182,45.58125 75.2727273,44.2 75.2727273,42.81875 C75.2727273,41.3119318 75.2727273,39.4284091 74.6454545,38.0471591 C74.0181818,36.5403409 73.7672727,36.1636364 75.3981818,34.9079545 C76.1509091,34.2801136 77.1545455,33.5267045 77.6563636,32.6477273 C78.4090909,31.2664773 78.7854545,29.00625 77.0290909,28.1272727 C75.6490909,27.4994318 74.2690909,27.7505682 72.8890909,28.2528409 C73.14,26.1181818 75.1472727,23.48125 72.5127273,22.3511364 C69,20.8443182 65.6127273,25.7414773 63.6054545,27.3738636 C61.0963636,29.3829545 58.5872727,31.6431818 55.8272727,33.4011364 C55.2,33.7778409 54.5727273,34.0289773 53.9454545,34.4056818 C53.3181818,34.6568182 52.44,35.1590909 52.8163636,34.2801136 C53.3181818,33.0244318 54.4472727,31.76875 54.8236364,30.5130682 C55.5763636,27.8761364 60.0927273,26.6204545 58.0854545,23.48125 C56.4545455,20.8443182 60.2181818,21.3465909 61.5981818,21.3465909 C63.7309091,21.3465909 65.2363636,20.2164773 67.1181818,19.7142045 C69,19.0863636 70.2545455,18.9607955 71.76,20.0909091 C73.0145455,20.9698864 74.3945455,20.3420455 75.6490909,19.9653409 C77.6563636,19.3375 79.1618182,18.2073864 81.1690909,17.3284091 C81.6709091,17.2028409 82.2981818,16.9517045 82.8,16.8261364 C83.8036364,16.3238636 83.9290909,16.4494318 83.3018182,17.3284091 C83.1763636,18.4585227 82.0472727,19.3375 81.2945455,20.2164773 C80.7927273,20.9698864 81.1690909,21.9744318 82.0472727,22.1 C85.6854545,22.7278409 88.4454545,18.3329545 88.6963636,15.3193182 C88.1945455,11.4267045 83.3018182,11.4267045 80.5418182,11.3011364 L80.5418182,11.3011364 Z M10.4127273,55.5011364 C10.2872727,55.6267045 10.1618182,55.7522727 10.1618182,55.8778409 C10.1618182,55.7522727 10.2872727,55.7522727 10.2872727,55.6267045 C10.5381818,54.8732955 11.04,54.1198864 11.4163636,53.3664773 C11.04,54.1198864 10.7890909,54.8732955 10.4127273,55.5011364 L10.4127273,55.5011364 Z" id="Shape"></path>
            <path d="M119.432727,26.6204545 C118.554545,26.6204545 117.676364,26.8715909 116.923636,27.2482955 L116.923636,27.2482955 C116.547273,27.3738636 116.045455,27.2482955 115.669091,27.2482955 C114.790909,27.2482955 113.285455,27.1227273 112.783636,27.8761364 C112.407273,28.3784091 112.532727,28.8806818 112.783636,29.2573864 L112.783636,29.2573864 C113.410909,30.3875 115.292727,30.0107955 116.421818,30.2619318 C117.676364,30.5130682 119.432727,30.8897727 120.436364,29.8852273 C120.687273,29.6340909 120.687273,29.1318182 120.436364,28.7551136 C120.310909,28.6295455 120.185455,28.5039773 120.06,28.3784091 C120.938182,28.1272727 120.561818,26.6204545 119.432727,26.6204545 L119.432727,26.6204545 Z" id="Shape"></path>
            <path d="M22.3309091,90.2835227 C23.5854545,90.5346591 24.84,91.5392045 26.0945455,91.0369318 C26.22,91.4136364 26.5963636,91.7903409 27.2236364,91.6647727 L27.4745455,91.6647727 C28.1018182,92.4181818 28.8545455,92.7948864 29.9836364,92.4181818 C30.9872727,92.0414773 30.9872727,90.7857955 30.4854545,90.0323864 C29.7327273,89.1534091 28.6036364,89.0278409 27.8509091,88.1488636 C27.7254545,87.7721591 27.4745455,87.3954545 27.0981818,87.01875 C26.5963636,86.5164773 26.0945455,86.7676136 25.7181818,87.1443182 C24.84,86.8931818 24.2127273,87.7721591 24.7145455,88.5255682 C24.84,88.7767045 25.3418182,89.0278409 25.2163636,89.1534091 C24.84,89.0278409 24.5890909,89.0278409 24.2127273,88.9022727 C23.7109091,88.7767045 23.2090909,88.5255682 22.7072727,88.5255682 C21.7036364,88.5255682 21.2018182,90.0323864 22.3309091,90.2835227 L22.3309091,90.2835227 Z" id="Shape"></path>
            <path d="M18.8181818,89.2789773 C18.9436364,89.2789773 18.9436364,89.6556818 19.0690909,89.6556818 L19.0690909,89.6556818 C19.1945455,89.6556818 19.1945455,89.5301136 19.32,89.6556818 C19.5709091,89.9068182 19.9472727,89.6556818 20.1981818,89.4045455 C20.9509091,88.4 19.8218182,87.6465909 18.9436364,87.6465909 L18.8181818,87.6465909 C18.4418182,87.5210227 18.0654545,87.8977273 18.3163636,88.1488636 L18.3163636,88.2744318 C18.1909091,88.7767045 18.4418182,89.2789773 18.8181818,89.2789773 L18.8181818,89.2789773 Z" id="Shape"></path>
            <path d="M33.6218182,94.4272727 C34.3745455,94.5528409 35.0018182,93.7994318 34.7509091,93.1715909 C34.7509091,93.1715909 34.7509091,93.0460227 34.6254545,93.0460227 C34.3745455,92.2926136 33.3709091,92.2926136 32.9945455,92.9204545 L32.8690909,92.9204545 C32.6181818,92.9204545 32.4927273,93.2971591 32.7436364,93.4227273 C32.7436364,93.7994318 33.12,94.4272727 33.6218182,94.4272727 L33.6218182,94.4272727 Z" id="Shape"></path>
        </g>
    </g>
</svg>