<?xml version="1.0" encoding="utf-8"?>
<!-- Generator: Adobe Illustrator 20.1.0, SVG Export Plug-In . SVG Version: 6.00 Build 0)  -->
<svg version="1.1" id="Ebene_1" xmlns="http://www.w3.org/2000/svg" xmlns:xlink="http://www.w3.org/1999/xlink" x="0px" y="0px"
	 viewBox="0 0 566.9 566.9" style="enable-background:new 0 0 566.9 566.9;" xml:space="preserve">
<style type="text/css">
	.st0{fill:#E30613;}
	.st1{fill:#47AC34;}
	.st2{fill:#009FE3;}
	.st3{clip-path:url(#SVGID_2_);}
	.st4{fill:#3AAA35;}
	.st5{fill:#1D71B8;}
</style>
<g>
	<path class="st2" d="M170.9,490.2c0.2-8.2-1.1-16.4-4.5-23.7c-3.3-7.3-8.4-13.7-14-19.7c-5.6-6-11.5-11.7-17.4-17.6
		c-2.9-2.9-5.8-5.9-8.7-9c-1.4-1.5-2.8-3.1-4.2-4.6c-0.8-1-1.3-1.6-2-2.5c-0.7-0.9-1.3-1.8-1.9-2.7c-4.8-7.2-8.4-14.8-11.7-22.6
		c-3.3-7.7-6.1-15.7-8.5-23.7c-4.9-16-8.4-32.4-10.6-49.1c-2.1-16.6-2.8-33.5-1.9-50.2c1-16.8,3.6-33.5,8.3-49.8
		c4.7-16.2,11.4-31.9,20.1-46.5c8.7-14.5,19.4-27.9,31.6-39.6c12.2-11.7,25.8-21.9,40.4-30.5c14.8-8.7,31.1-14.6,47.8-18
		c16.7-3.4,33.8-4.3,50.8-3.3c17,1.1,33.8,4.4,50,9.6c16.2,5.2,31.7,12.6,46.1,22c14.3,9.4,27.3,21,37.9,34.8
		c10.6,13.7,18.7,29.5,23.2,46.4c4.5,16.9,5.5,34.6,3.6,51.7l-0.7-3.9l8.5,17.5c2.8,5.8,5.5,11.7,8.3,17.6c2.7,5.9,5.4,11.8,8,17.7
		c2.6,6,5.2,11.9,7.6,18.1c1.2,3.1,2.4,6.2,3.5,9.5c0.3,0.8,0.5,1.7,0.8,2.6c0.2,1,0.5,1.9,0.7,3.6l0,0.3l0,0.6l0,0.1l0,0.3
		c0,0.4-0.1,1.4-0.2,1.8c-0.2,0.9-0.4,1.6-0.6,2.2c-0.5,1.3-1,2.2-1.5,3.1c-2.1,3.5-4.3,6.1-6.6,8.7c-2.3,2.6-4.6,5-6.9,7.4
		c-4.7,4.7-9.5,9.2-14.3,13.5c-2.4,2.2-4.9,4.3-7.4,6.4c-2.5,2.1-5,4.2-7.5,6.3l2-4.9c0.3,4.8,0.4,9.5,0.5,14.3
		c0.1,4.7,0.1,9.5,0.1,14.2c-0.1,9.5-0.6,19-1.6,28.5c-0.6,4.8-1.3,9.6-2.4,14.4c-1.2,4.8-2.4,9.7-5.7,14.5
		c-0.9,1.2-1.9,2.4-3.3,3.4l-0.5,0.4l-0.5,0.3l-0.4,0.2l-0.5,0.3c-0.8,0.4-1.3,0.6-2,0.9c-2.5,1-5,1.6-7.5,2.1
		c-4.9,0.9-9.7,1.3-14.5,1.5c-9.6,0.4-19.1-0.1-28.5-1c-9.4-0.9-18.8-2.3-28-4.1c-18.5-3.6-36.8-8.7-53.9-16.6l0.5-1.3
		c8.7,3.4,17.6,6.1,26.7,8.3c9,2.2,18.2,3.9,27.4,5.3c9.2,1.3,18.5,2.2,27.7,2.7c9.3,0.4,18.5,0.5,27.7-0.2
		c4.6-0.4,9.1-0.9,13.4-1.9c2.1-0.5,4.2-1.1,6-1.9c0.4-0.2,0.9-0.4,1.2-0.6l0.2-0.1l0.4-0.2l0.2-0.1l0.1-0.1l0,0c0,0,0.1-0.1-0.1,0
		l0.2-0.1c0.5-0.4,1-1,1.4-1.7c1.9-3,3-7.4,3.8-11.7c0.8-4.4,1.3-8.9,1.6-13.4c0.6-9.1,0.6-18.4,0.4-27.6c-0.1-4.6-0.3-9.3-0.5-13.9
		c-0.2-4.6-0.6-9.3-0.9-13.8l-0.2-2.8l2.3-2c2.4-2.1,4.7-4.2,7.1-6.4c2.4-2.2,4.7-4.3,7-6.5c4.6-4.4,9.2-8.8,13.5-13.4
		c2.2-2.3,4.2-4.6,6.2-6.9c1.9-2.3,3.8-4.7,4.9-6.8c0.3-0.5,0.5-1,0.6-1.2c0-0.1,0-0.2,0-0.1c0,0.1-0.1,0.6-0.1,0.6l0-0.3l0-0.1l0,0
		c0,0.9,0,0.2,0,0.4l0,0c0,0.1-0.1-0.6-0.3-1.2c-0.2-0.6-0.4-1.3-0.7-2c-1-2.8-2.2-5.7-3.4-8.6c-2.4-5.8-5.1-11.7-7.7-17.5
		l-8.1-17.5l-16.4-34.9L431,242l0.2-2c1.9-15.6,1.1-31.5-2.8-46.7c-3.8-15.2-10.9-29.4-20.3-42c-9.5-12.6-21.3-23.5-34.5-32.4
		c-13.2-8.9-27.7-16-42.9-21.1c-15.2-5.1-31.1-8.4-47.1-9.6c-16-1.2-32.2-0.5-47.9,2.6c-15.7,3.1-31,8.4-44.8,16.4
		c-14,8.1-27.1,17.7-38.8,28.8c-11.7,11.1-22,23.7-30.4,37.4c-8.4,13.7-15,28.6-19.6,44.1c-4.6,15.5-7.3,31.6-8.4,47.8
		c-1.1,16.2-0.5,32.6,1.4,48.8c2,16.2,5.2,32.2,9.9,47.9c2.3,7.8,5,15.5,8.1,23c3.1,7.5,6.6,14.9,10.9,21.5c0.5,0.8,1.1,1.6,1.6,2.4
		c0.5,0.7,1.3,1.7,1.8,2.3l3.9,4.8c2.6,3.2,5.3,6.3,8,9.4c5.4,6.2,11.1,12.2,16.4,18.7c5.3,6.4,10.3,13.5,13.3,21.4
		c3.1,7.9,3.9,16.6,3.2,24.9L170.9,490.2z"/>
	<g>
		<defs>
			<circle id="SVGID_1_" cx="247.5" cy="207.1" r="83"/>
		</defs>
		<clipPath id="SVGID_2_">
			<use xlink:href="#SVGID_1_"  style="overflow:visible;"/>
		</clipPath>
		<g class="st3">
			<path class="st4" d="M327.2,246.8c0,1.6-1.2,3.9-1.8,5.4c-0.1,0.2-0.2,0.4-0.2,0.6c-0.3-0.3-1-0.2-1.2,0.2
				c-0.4,0.7-0.6,1.4-0.8,2.1c-0.2,0.1-0.3,0.3-0.4,0.4c-0.2,0.5-0.3,0.8-0.4,1.3c-0.1,0.1-0.2,0.3-0.3,0.4
				c-0.6,0.9-0.9,1.9-1.5,2.9c-0.9,1.6-2.6,2.6-3.4,4.3c-0.3,0.6,0.4,1.4,1.1,1.1c1.3-0.6,2.3-2,3.2-3.1c0.2,0,0.4-0.2,0.5-0.4
				c0.1-0.2,0.1-0.3,0.2-0.5c0.7-1,1.3-2.4,1.5-3.5c0.1-0.4,0.2-0.8,0.4-1.2c0.3-0.4,0.5-0.8,0.7-1.3c0.2-0.2,0.4-0.3,0.6-0.5
				c0.6-0.6,0.8-1.6,1.1-2.3c0.7-1.7,1.6-4.1,1.4-5.9C327.8,246.3,327.2,246.4,327.2,246.8z"/>
			<path class="st4" d="M267.6,156.1c-0.2-0.3-0.5-0.4-1.1-0.5c-0.9-0.1-1.4,1.2-0.5,1.5c0.1,0,0.2,0.2,0.3,0.3
				c-0.1,0.5,0,0.9,0.3,1.4c0.4,0.6,0.7,1.1,1.2,1.6c0.5,0.5,1.1,0.8,0.9,1.6c-0.2,0.6,0.2,1.5,0.8,1.7c0,0.1-0.1,0.1-0.1,0.2
				c-0.1,0.2-0.2,0.3-0.3,0.5c-0.2,0.4-0.3,0.8-0.3,1.2c0,0.6,0.8,1,1.3,0.8c1.2-0.5,2.5-1.1,3.1-2.2c0.2-0.1,0.4-0.3,0.7-0.5
				c0.4-0.4,0.1-1.2-0.5-1.2c-0.4,0-0.8-0.1-1.2-0.1c0.2-1-1.4-1.9-2.5-2.7c-0.3-0.2-1.1-1.3-1.4-1.8c-0.2-0.3-0.2-0.5-0.3-0.8
				c0,0,0,0,0,0C268.1,156.5,267.9,156.2,267.6,156.1z"/>
			<path class="st4" d="M267,160.4c-0.2-0.4-0.8-0.5-1.3-0.5c-0.3-0.1-0.6-0.2-0.9,0c-0.5,0.3-0.7,0.6-0.7,1.2c0,0.1,0,0.2,0.1,0.3
				c-0.3,0.1-0.4,0.4-0.4,0.7c0,0.3,0.2,0.6,0.5,0.7c-0.2,0.2-0.3,0.5-0.3,0.8c-0.1,0.5,0.5,1,1,0.8c0.7-0.3,1.4-0.5,2-0.9
				c0.3-0.2,0.3-0.5,0.2-0.8c-0.1-0.2-0.2-0.4-0.3-0.5C267.3,161.6,267.3,161,267,160.4z"/>
			<path class="st4" d="M286.5,177.7c-0.9-0.2-1.4,1-0.7,1.4c0.1,0.1,0.1,0.1,0.2,0.2c0,0,0,0-0.1,0c0,0,0.1,0.1,0.1,0
				c0.1,0.3,0.2,0.5,0.2,0.7c0,0.5,0.3,1,0.9,0.9c0.4,0,0.7-0.4,0.7-0.8c0.1-0.5,0.1-0.9,0-1.3C287.6,178.3,287.1,177.8,286.5,177.7
				z"/>
			<path class="st4" d="M280.9,179.1C280.9,179.1,280.9,179.1,280.9,179.1c-0.1-0.3-0.2-0.4-0.5-0.5c-0.4-0.1-0.7,0.2-0.6,0.6
				c0,0.1,0.1,0.3,0.1,0.4c0,0,0.1,0.1,0.1,0.1c0.1,0.1,0,0,0,0c0.1,0.5,0.9,0.6,1,0c0-0.1,0-0.3,0-0.4
				C281,179.2,280.9,179.2,280.9,179.1z"/>
			<path class="st4" d="M285.9,179.3C285.9,179.3,285.9,179.3,285.9,179.3C285.9,179.3,285.9,179.3,285.9,179.3z"/>
			<path class="st4" d="M294.2,180.7c-0.1,0-0.2-0.1-0.4-0.1c-0.4,0-0.7,0.1-0.9,0.4c-0.1,0-0.1-0.1-0.2-0.1c0,0,0,0,0,0
				c-0.3-0.1-0.6-0.1-0.9,0.1c-0.4,0.2-0.5,0.8-0.2,1.1c0.2,0.3,0.5,0.5,0.8,0.7c0.3,0.2,0.8,0.5,1.2,0.4c0.6-0.1,1-0.6,1-1.2
				c0-0.3,0-0.5-0.1-0.7C294.6,181,294.5,180.8,294.2,180.7z"/>
			<path class="st4" d="M332.3,210.9c-0.6-0.1-1,0.3-1.1,0.8c-1,0.7-2.5,1.8-3.1,0.5c-0.5-1-0.8-1.8-1.6-2.7c-1-1.1-2.1-1.8-2.8-3.2
				c-0.4-0.8-1-1.5-1.5-2.2c-0.2-2.5-1.3-5.1-3-6.8c0-0.1-0.1-0.3-0.1-0.4c0.9,1,1.7,2.1,2.5,3.2c1,1.4,1.8,2.7,3.1,3.9
				c1.8,1.8,4,3.5,3.8,6.3c0,0.4,0.2,0.9,0.7,1c0.1,0,0.2,0,0.3,0c0.5,0,1-0.2,1-0.7c0.4-3.7,2.1-7.1,2.7-10.8
				c0.2-1.5,0.1-3.2,0.1-4.7c0-1.8-1.9-3-2-4.9c0-0.5-0.3-0.8-0.6-1c2.8-0.1,2.5-5.9,2.5-7.5c0-1.9,0.3-4-0.4-5.8
				c-0.7-2-2.3-3.7-3.1-5.7c-2.1-5-4.4-9.5-7.7-13.8c-6.2-8.2-14.8-14.5-23.5-20c-4.2-2.7-8.8-5-13.5-6.7c-5.3-1.9-10.3-3.6-16-4.1
				c-0.6,0-1,0.1-1.3,0.4c-0.3-0.2-0.5-0.5-0.8-0.8c-0.8-1-2.5,0.2-1.7,1.2c0.5,0.6,1.2,1.1,1.8,1.5c0.2,0.5,0.6,0.9,1.3,1
				c0.1,0,0.1,0,0.2,0c1.1,0.7,2.9,2,2.9,2.8c0,2.3,3.5,3,5.3,3.8c0.6,0.3,3.5,0.6,3.2,1.3c-0.3,0.6-0.1,1.5,0.4,1.9
				c0.9,0.7,1.7,0.9,2.8,1c0.9,0.1,1.7,0.3,2.4,0.5c-0.2,1-0.2,2.4-0.1,3.3c0.1,1.2,0.6,1.7,1.6,2.5c-0.2-0.2,1,1.4,0.1,0.4
				c-0.2-0.2-0.5-0.4-0.8-0.5c-0.5-0.1-1.3-0.1-2.2-0.2c0.3-0.1,0.6-0.2,0.8-0.4c0.7-0.8,0.4-2.1-0.4-2.7c-0.3-0.3-0.7-0.2-1.1,0
				c-1.7,1-3.9-1.5-5.5-0.7c-1.5,0.8-3.4,1.5-3.8,3.3c-0.2,0.9-0.3,1.7-0.1,2.6c0.1,1.1,0.1,2-0.6,2.8c-0.2,0.2-0.5,0.6-0.6,0.9
				c-0.3,1.4,0.8,4.3,2,5.2c0.6,0.4,1.3,0.2,1.7-0.4c0.2-0.4,0.6-1.6,1.3-1.5c0.8,0.1,2,1.5,1.9,2.3c-0.1,0.6,0.6,1.4,1.3,1
				c0.2-0.1,0.3-0.1,0.4-0.2c0.6,0.2,1.1-0.1,1.3-0.7c0.2-0.7,0.7-1.9,0.4-2.7c-0.6-1.5-2.9-1.5-2.6-3.5c0.1-0.7,0.1-1-0.1-1.7
				c0-0.1-0.8-2-0.6-2c2,0.6,1.2,2.8,1.7,4.2c0.7,1.9,3.8,1.6,5.1,0.6c0.1-0.1,1.4-1.3,1.7-0.9c0.2,0.4,1,0.6,0.1,1.2
				c-0.9,0.7-2,1.4-2.4,2.5c-0.1,0.4,0,0.8,0.4,1.1c0.5,0.3,0.1,0.8,0.4,1.3c1.1,1.8-1.8,1.9-2.9,1.8c-0.8-0.1-1.4,0.2-2.1,0.5
				c-0.2,0.1-1.8-0.3-2.5-0.7c-0.1-0.2-0.1-0.5,0-0.8c0.1-0.8-0.9-1.2-1.5-0.6c-0.5,0.5-0.5,1-0.3,1.5c-0.1,0.8,0,1.8,0.8,2
				c0.4,0.1,0.7,0.2,1.1,0.3c-1.5,0.6-1.5,1.8-2.8,2.8c-1,0.7-2.3,0.1-2.9,1.3c-0.5,1.1-2.4,1-3.3,1.9c-0.4,0.4-0.8,1.1-0.3,1.6
				c1.5,1.1,3,1.7,3.7,3.6c0.7,1.8-5.2,1.4-5.7,1.5c-0.7,0.1-0.9,0.4-1.1,0.8c-0.1-0.1-0.2-0.1-0.5-0.2c-0.2-0.1-0.5,0.1-0.5,0.3
				c-0.3,1.4,0.1,2.6,0.5,3.9c0.3,1,0.4,1.8,0.2,2.9c-0.1,0.2,0,0.7,0.2,0.9c0.5,0.6,1.3,0.6,2,0.7c0.9,0.1,1.8,1.5,2.8,1.7
				c-0.3,0-0.7,0.1-1.1,0.6c-0.9,1.1-0.3,3.1-1.4,4.2c-0.2-0.2-0.5-0.4-1-0.5c-0.5-0.1-0.9,0.2-1.1,0.6c-1.1,2-0.7,4-2.4,5.8
				c-0.8,0.9-1.8,1.8-2.5,2.7c-0.8,1-1.9,1.7-2.8,2.6c-1.4,1.4-1.5,3.9-2.5,5.6c-1.1,1.8,1.1,4.5-0.4,5.9c-0.1,0-0.2,0.1-0.3,0.2
				c-0.1,0.1-0.2,0.1-0.3,0.2c-0.7,0.6-0.5,1.3,0,1.7c-0.4,0.8-0.5,1.6-0.5,2.6c0,0.3,0.1,0.6,0.3,0.7c0,1.7,0.5,3.4,2.1,4.6
				c0.9,0.7,1.6,1,1.9,2.2c0.2,0.8,0.4,1.4,0.8,2c0.8,1.1,2.8,3,4.1,3.6c0.8,0.4,1.7,0.4,2.4,0.8c0.9,0.5,1.9,1,2.9,1.3
				c1.1,0.3,0.9,0.7,1.9,0.5c1.2-0.2,2.3-0.5,3.5-0.6c1-0.1,3.8,0.5,4.7-0.4c0.8-0.8,1.7-1.4,2.7-1.9c0.2,0,0.3,0,0.5,0
				c1,0.1,2.9-2.4,4-1.1c0.6,0.8,1.5,0.6,1.8,1.6c0.7,2.2,2.1,2.7,4.4,2.1c2-0.5,0.2,2-0.1,3c-0.4,1.4-0.6,3.1-0.8,4.6
				c-0.2,1.4,0.7,2.8,1.3,4c0.8,1.5,1.2,3,1.9,4.5c0.7,1.5-0.3,4.8-0.6,6.5c-0.2,1.1-0.4,2.3-1.1,3.3c-0.5,0.8-1.5,1.4-1.9,2.2
				c-0.8,1.3-0.7,2.5-0.6,4c0.2,1.9,0.2,4.2-0.6,6c-0.4,1-0.6,2-0.5,3c0,0.2,0.2,0.5,0.4,0.7c-0.2,0.5-0.3,0.9-0.4,1.4
				c-0.5,1.9-0.9,4.4-0.8,6.4c0,0.4,0.5,0.9,1,0.8c3.1-0.7,5.7-1.9,7.8-4.2c0.9-0.9,1.7-1.8,3.1-2c0.5-0.1,1.2,0,1.7-0.2
				c1.8-0.7,2.8-2.5,3.9-3.9c1.1-1.4,1.8-2.9,2.5-4.5c1-2.2,2.4-3.4,4.2-5c1.5-1.4,2.6-3.2,4-4.7c0.9-1,2.1-1.8,2.5-3.1
				c1.2-3.9,2.5-7.9,3.1-12c0.1-0.9,0.2-1.9,0.3-2.8c0.2-1.1,1.5-2.2,2-3.2c1.1-2,2-3.9,2.9-6.1c0.8-2.2,1.8-4.3,2.6-6.4
				c0.8-2.2,1.3-4.5,2.3-6.6c0.7-1.4,0.5-3.7,0.6-5.2C334,211.7,333.4,211.1,332.3,210.9z M326.4,188.4c0.7,0.1,1.4,0,2,0.2
				c0.5,0.2,0.9,0.5,1.4,0.6c-0.4,0-0.9,0.3-1.1,0.7c-0.5,0.8-0.7,1.5-0.9,2.4c-0.1,0.3-0.1,0.7-0.1,1.1c-1.2-1.5-2-3.4-2.5-5.3
				C325.5,188.1,325.9,188.3,326.4,188.4z M305.2,169c0.6-0.2,0.8-0.6,0.8-1.1c0.2,0.5,0.6,0.9,1.2,1.3c1.3,0.6,2.3,0.7,3.1,2
				c0.7,1,1.1,1.9-0.5,2.2c-1.7,0.3-3.6,0.4-5.3,0.8c0,0-0.1,0-0.1,0c-1-1.2-1.3-2.2-1.1-3.9c0.1-0.8-0.3-1.6-0.3-2.4
				C303.6,168.7,304.2,169.4,305.2,169z M307.2,187.3c-1.5,0.5-4.2-0.3-5.3,1.2c-0.5,0.7-0.5,1.6-1.4,1.4c-1.4-0.4-3.1-1.3-4.3-2.1
				c-1.2-0.7-2.3-1.8-3.9-1.9c-0.8-0.1-0.7-0.4-1.3-0.9c-0.7-0.6-0.9,0.5-0.4-0.9c1.5-4.1-5.9-1.5-7.3-1.1c-1.2,0.4-2.4,0.4-3.6,0.6
				c-1.1,0.2-2,0.7-3,1.1c-1.2,0.4-2.6,0.3-3.6,0.9c-0.4-0.2-0.9-0.5-1.3-0.6c0.1,0,0.3,0,0.4,0c1.2-0.4,2.5-0.7,3.7-1.1
				c0.8-0.3,1.5-1.2,1.3-2c-0.3-1.8-0.3-3.2,1.2-4.5c0.9-0.8,2.6-1.1,3-2.3c0-0.1,0-0.3,0-0.4c0.8-0.7,2.1-1,3-0.9
				c0.7,0.1,1.1-0.1,1.5-0.4c0.7,1.1,1.3,2.2,2.8,2.5c1.6,0.4,3,0.4,4,1.9c0.4,0.6,0.8,1.2,1.3,1.8c0.4,0.5,0.5,0.6,0.5,0.6
				c0,0.4,0.2,0.8,0.7,0.7c0.3-0.1,0.6-0.1,0.8-0.4c0.1-0.2,0.2-0.4,0.1-0.6c-0.5-0.9-1-1.9-1.5-2.8c0,0,0,0,0,0
				c-0.5-0.8-1.1-1.6-1.8-2.2c-0.5-0.4-1.4-0.4-2-0.4c-0.3-0.3-0.6-0.6-0.9-0.9c-1-0.9-1.8-1.4-2.4-2.7c0,0,0-0.1-0.1-0.1
				c1.3-0.2,3,0.5,3.8,1.3c1.3,1.3,3,2,3.8,3.9c0.3,0.6,0.6,2,1.5,2.3c0.4,0.1,1.7,0.4,1.8,0.6c0.6,0.6,0.8,1.5,1.5,2
				c1,0.8,3.2,1.2,3.5-0.5c0.1-0.8-0.5-1.4-1-1.9c-0.2-0.2-1.3-1.3-0.9-1.5c0.6-0.2,1.3-0.5,2-0.6c0,0.1,0.1,0.3,0.1,0.5
				c0.3,1.1-0.3,3,1.3,3.5c2,0.6,4.1,0.5,6.1,0.4c3.5-0.3,2.2,2.6,2.8,4.7C314.5,188.6,309.1,186.7,307.2,187.3z"/>
			<path class="st4" d="M286.1,175.7c0.3-0.1,0.3-0.5,0.1-0.7c0.1-0.1,0.1-0.3-0.1-0.4c-0.1,0-0.2,0-0.2-0.1c-0.2,0-0.3,0.1-0.3,0.2
				c0,0.1-0.1,0.3-0.1,0.4c-0.1,0.2,0,0.4,0.2,0.5C285.7,175.7,285.9,175.7,286.1,175.7z"/>
			<polygon class="st4" points="285.9,179.3 285.9,179.3 285.9,179.3 			"/>
			<path class="st4" d="M235.4,129.6C235.4,129.6,235.3,129.6,235.4,129.6c-0.1,0.1-0.1,0.1-0.1,0.1c0,0,0,0,0,0c0,0,0,0.1,0,0.1
				c0,0,0,0,0,0c0,0,0,0.1,0,0.1c0.1,0.2,0.3,0.3,0.5,0.4c0,0,0,0,0,0c0.2,0,0.3,0.1,0.5,0.1c0.3,0,0.5,0,0.8-0.1
				c0.5-0.2,0.5-0.8,0-1.1c-0.4-0.2-0.8-0.3-1.2-0.2c-0.2,0-0.3,0-0.5,0.2c0,0,0,0,0,0c0,0,0,0,0,0c0,0-0.1,0.1-0.1,0.1c0,0,0,0,0,0
				c0,0,0,0.1,0,0.1c0,0,0,0,0,0c0,0,0.2,0.1,0.2,0.1c0,0,0.2,0,0.2,0.1c0,0,0,0,0,0C235.6,129.5,235.4,129.5,235.4,129.6z"/>
			<path class="st4" d="M237.4,131.6c0.6,0.1,0.8-0.9,0.2-0.9C237,130.6,236.8,131.6,237.4,131.6z"/>
			<path class="st4" d="M233.2,141.9c0-0.3-0.1-0.5-0.2-0.8c-0.1-0.4-0.3-0.6-0.6-0.8c-0.1-0.2-0.5-0.3-0.7-0.1
				c-0.4,0-0.9,0.3-1.2,0.7c0,0,0,0,0,0c-0.1,0-0.3-0.1-0.4,0c-0.5,0.1-1,0.4-1,1c-0.1,1,1,2,1.7,2.7c0.7,0.8,1.8,0.5,2.3-0.2
				c0.2,0.1,0.5,0.1,0.7,0c0.3,0,0.6-0.2,0.6-0.5C234.7,143,233.9,142.5,233.2,141.9z"/>
			<path class="st4" d="M241.9,133.5c-0.2,0.3,0,0.7,0.3,0.9c0.4,0.2,0.9,0.2,1.2,0c0.1-0.1,0.3-0.2,0.4-0.3
				c0.1-0.1,0.1-0.2,0.2-0.3c0,0,0,0,0,0c0,0,0,0,0,0c0.1-0.3-0.1-0.8-0.5-0.7c-0.3,0-0.5,0.1-0.7,0.2c0,0,0,0-0.1,0
				C242.5,133,242.1,133.2,241.9,133.5z"/>
			<path class="st4" d="M241.8,131c-0.7-0.1-0.8,0.9-0.2,1C242.3,132.1,242.5,131.1,241.8,131z"/>
			<path class="st4" d="M240.9,133.2c0.4,0,0.4-0.6,0-0.7c-0.1,0-0.1,0-0.2,0c0,0-0.2,0-0.1,0c-0.1,0-0.1,0-0.2,0c0,0,0,0,0,0
				c0-0.1-0.1-0.2-0.1-0.3c0-0.1-0.2-0.2-0.3,0c-0.1,0.2-0.3,0.6-0.1,0.8C240.1,133.3,240.5,133.3,240.9,133.2z"/>
			<path class="st4" d="M241.2,131.1c0.3,0,0.5-0.2,0.7-0.4c-0.1,0.1,0.1,0,0.1-0.1c0,0,0,0,0.1,0c0.1,0,0.1,0,0.2,0
				c0.6-0.1,0.6-0.9,0-1c-0.3-0.1-0.6-0.1-1,0c-0.1,0-0.2,0.1-0.3,0.1c-0.3,0.1-0.4,0.3-0.5,0.6
				C240.4,130.8,240.8,131.1,241.2,131.1z"/>
			<path class="st4" d="M259.5,142.8c1.2-0.7,3.6-0.7,3.2-2.7c-0.1-0.6-0.7-0.7-1.3-1c0.5,0.2,1.9-0.8,2-1.2c0,0,0-0.1,0-0.1
				c0.7,0.4,1.5,0.6,2.3,0.9c0.1,0.1,0.3,0.1,0.4,0.1c0.8,0.2,1.3-1.1,0.4-1.4c-0.2-0.1-0.3-0.1-0.5-0.2c-0.1,0-0.1-0.1-0.2-0.1
				c0.1-0.1,0.1-0.2,0.2-0.3c0.3-0.7-0.5-1.1-1.1-0.8c-0.1,0.1-0.2,0.1-0.3,0.1c-0.1,0-0.1,0-0.2-0.1c-0.2-0.2-0.6-0.1-0.8,0.1
				c-0.1,0-0.2,0-0.2,0c0-0.1-0.1-0.3-0.1-0.4c-0.4-0.9-1.6-0.9-1.2-2c0.1-0.4,0-0.7-0.2-0.9c-0.7-0.7-1.9-0.6-2.9-0.6
				c-0.5,0-1,0.2-1.4,0.4c-0.3,0.1-0.3-0.7-0.6-1c-1.3-1.1-3.1-0.9-4.8-1c-2-0.1-4-0.9-5.7,0.1c-0.9,0.5-0.8,1.7-0.3,2.3
				c0.2,0.3,0.6,0.5,0.9,0.6c0.3,0.1,0.6,0.1,1,0.2c1,0.1,0,0.2-0.4,0.5c-1.4,1.1-1.7,1.5-1.8,3.3c-0.1,1.2-1.1,2-1.6,3
				c-1.2,1-1.6,2.8-2.5,4c-0.6,0.7-1.8,4.1-0.8,4.9c1.5,1.3,3.1-1,4.1-1.8c2.7-2.4,5.6-3.8,9.3-2.9c0.7,0.2,1.4-0.4,1.9-0.7
				C257.2,143.3,258.5,143.4,259.5,142.8z"/>
			<path class="st4" d="M187.5,192.1c0.8,0.2,1.6-0.8,0.8-1.3c-0.1,0-0.1-0.1-0.2-0.1c0,0,0,0,0,0c-0.1,0-0.1,0-0.2-0.1
				c-0.2-0.2-0.4-0.3-0.6-0.5c-0.2-0.2-0.3-0.4-0.4-0.6c0-0.1-0.1-0.2-0.1-0.3c-0.4-0.8-0.7-1.8-0.8-2.4c0-0.2-0.1-0.4-0.2-0.6
				c0-0.1-0.1-0.2-0.1-0.3c-0.4-1.3-1.3-2.5-2.9-2.6c-0.8,0-1.3,0.8-0.6,1.3c0.4,0.3,0.7,0.7,1.1,1.1c0.3,0.4,0.9,0.7,1.1,1.1
				c0.1,0.1,0.1,0.3,0.2,0.5c0.1,0.3,0.1,0.6,0.2,0.8c0.2,0.7,0.2,1.5,0.6,2.1c0.1,0.1,0.1,0.1,0.2,0.2c0.1,0.2,0.2,0.4,0.4,0.7
				c0.3,0.3,0.7,0.4,1,0.5C187.1,192,187.3,192.1,187.5,192.1z"/>
			<path class="st4" d="M234.2,133c-0.8,0-1.9-0.1-2.9-0.1c0.8-0.1,1.5-0.2,2.1-0.8c0.6-0.8,0.3-2-0.5-2.4c-0.7-0.4-3-0.5-1.4-2
				c0.7-0.6,1.2-1.1,1.7-1.8c0.3-0.4,0-1.1-0.5-1.3c-3.7-1.5-7.8,0.3-11,2.1c-5.1,2.9-53.6,20-48.9,48.1c0,0,0,0,0,0c0,0,0,0,0,0
				c-0.7,1-1.5,2.1-1.7,3.3c-0.1,0.4-0.1,0.8-0.2,1.3c-0.1,0.3-0.3,0.5-0.4,0.8c-0.2,1.1-0.3,2.1-0.4,3.2c-0.2,1.7,0.5,3.3,0.9,4.9
				c0.6,2.1,0.9,4.3,1.4,6.5c0.5,2.1,0.6,5.3,2,7.3c0,0,0,0.1,0,0.1c0.5,1.5,0.9,3,1.4,4.6c0.3,1.1,1.4,2,2.6,2.1
				c0.7,0.1,1.1,0.1,1.8,0.4c-0.3,0.6-0.5,1.2-0.6,1.7c-0.5,2.2-1.2,3.5-2.7,5.1c-1.4,1.6-0.5,3.8-1.1,5.6c-0.6,1.9-1.5,3.3-1.5,5.3
				c0,1.6,1.3,3.8,2.2,5.2c1.1,1.7,2.5,3.1,3.6,4.8c0.9,1.5,1.1,2.4,0.9,4c-0.1,0.8,0,1.4,0.2,2.1c0.3,0.9,0.9,1.8,1.2,2.7
				c0.3,1,0.5,2,1,3c0.3,0.6,0.8,1.2,1.2,1.8c0.9,1.3,1,2.8,1.3,4.3c0.8,4,1.1,8.3,2.4,12.2c0.6,1.8,1.6,3.5,2.4,5.3
				c0.8,1.8,1.5,3.3,3.2,4.4c1.7,1.1,3.7,1.7,5.3,2.9c1.6,1.2,2.9,2.9,4.4,4.2c0.5,0.4,0.9,0.9,1.3,1.5c0.3,0.7,0.7,1.3,1,2
				c0.1,0.3,0.3,0.6,0.5,0.9c0.2,0.5,0.4,1,0.5,1.5c0.5,1.8,2.7,3.4,3.7,4.9c0.2,0.3,0.6,0.5,0.9,0.5c1.2,1.3,2.4,2.6,3.6,4
				c0.6,0.7,1.7-0.1,1.2-0.8c-2.2-3.6-4.5-7.3-6.9-10.8c-1.1-1.6-2.3-3.3-2.7-5.2c-0.2-0.8,0.1-1.8,0.1-2.6c0-0.8-0.6-1.5-0.9-2.1
				c-0.4-0.9-1-1.4-1.1-2.4c-0.2-1.6,1-0.4,1.6,0.1c1.2,0.8,2.3,0.7,3.5,0c1.1-0.6,1.7-2,2.2-3c0.3-0.6,0.5-1.2,0.8-1.8
				c0.4-0.9,0.1-1.9,0.6-2.8c0.2-0.3,0.2-0.5,0.1-0.7c0.1,0,0.2-0.1,0.4-0.1c0.7-0.2,1.1-0.7,1.9-0.8c0.3,0,0.9,0.1,1.2,0
				c1.1-0.5,1.9-1.1,2.7-1.9c1.1-1.1,3.6,0.2,5-0.1c2.1-0.5,3.7-2.4,4.2-4.3c0.3-1.2-0.3-2.7-0.5-3.9c-0.3-1.7,1.3-4.6,2.7-5.8
				c1.5-1.4,3.4-2.8,3.3-5.1c-0.1-2.4-1.7-4.6-4-5.7c-1.6-0.8-3.8-0.8-5-2.1c-0.8-0.8-1.4-1.6-2.4-2.3c-1.2-0.7-2.6-0.6-3.9-1.2
				c-1.4-0.7-2.4-1.8-3.8-2.5c-1.1-0.5-2.3-0.7-3.4-1c-2.1-0.6-1.7-2.3-1.6-4c0.2-2.5-0.8-3.9-2.9-5.4c-1-0.7-1.9-1.6-2.9-2.2
				c-1.1-0.7-2.6-0.4-3.5-1.5c-0.8-1-1.5-1.9-2.3-2.8c-1.2-1.2-1.7-3-2.5-4.5c-0.9-1.7-2.1-2.6-4.1-2.1c-1,0.2-2.1,0.4-2.5-0.7
				c-0.2-0.4-0.3-0.7-0.5-1.1c-0.4-0.7-1.1-1.4-2-1.6c-2.1-0.4-4.3,1.2-5.8,3.1c0,0-0.1-0.1-0.1-0.1c-1-0.6-2.7-0.4-3.3-1.4
				c-0.6-1.1-1.3-4.9-0.7-5.8c1.3-1.8,5.3-5.4,2.9-7.7c-0.5-0.5-4.1-2.1-2.6-3.1c1.1-0.7,2.2-1,2.9-2.3c0.2-0.4,0-0.9-0.3-1.2
				c-1.7-1.4-3.4-0.8-5.2-0.1c-0.2-0.8-0.3-1.5-0.2-2.3c0.1-1.3,1.4-2.3,2.4-3.2c0.8-0.7,1.3-1.5,1.8-2.5c0.7-1.2,1.6-1.9,2.5-3
				c1.2-1.4,2.9-2.9,4.6-1c0.8,0.8,2-0.2,2.4,1.4c-1.1,2.1-1.1,4.7-2.7,6.6c-0.7,0.9,0.6,1.9,1.4,1.1c1-1.1,2.6-2.2,2.9-3.8
				c0.2-1.2,0.3-2.4,0.2-3.6c0.7-0.9,2.3-1,3.4-1.3c1.2-0.3,2.3-1.1,3.3-1.8c2.2-1.7,4.1-3.6,6.5-5.1c1.8-1.1,2.7-1.4,4.9-0.9
				c1,0.2,1.9,0.2,2.9-0.1c1.3-0.4,2.1-1.3,3.5-1.6c1.4-0.3,2,0.7,3.2,1.1c1.3,0.5,2.4-1.3,3-2c0.6-0.8,1.2-2.4,0.1-3.1
				c-0.7-0.5-1.5-0.6-2.3-0.9c-0.3-0.1-2.8-0.4-1.1-1.6c0.4-0.3,0.6-0.5,0.9-0.8c0.3-0.4,0.3-0.8,0-1.2c-0.7-1.1-1.7-1.1,0.4-0.9
				c1.2,0.1,2.2,1.3,3.3,1.3c1.2,0.1,2.4-0.1,2.9,1.3c0.2,0.7,0.5,1.3,0.9,1.9c0.5,0.8,1.6,1.2,2.5,0.9c1.2-0.4,1.4-1.5,1.4-2.6
				c0-1.2,0-2.7-0.5-3.8c-0.5-1.2-0.7-1.5,0.6-2.5c0.6-0.5,1.4-1.1,1.8-1.8c0.6-1.1,0.9-2.9-0.5-3.6c-1.1-0.5-2.2-0.3-3.3,0.1
				c0.2-1.7,1.8-3.8-0.3-4.7c-2.8-1.2-5.5,2.7-7.1,4c-2,1.6-4,3.4-6.2,4.8c-0.5,0.3-1,0.5-1.5,0.8c-0.5,0.2-1.2,0.6-0.9-0.1
				c0.4-1,1.3-2,1.6-3c0.6-2.1,4.2-3.1,2.6-5.6c-1.3-2.1,1.7-1.7,2.8-1.7c1.7,0,2.9-0.9,4.4-1.3c1.5-0.5,2.5-0.6,3.7,0.3
				c1,0.7,2.1,0.2,3.1-0.1c1.6-0.5,2.8-1.4,4.4-2.1c0.4-0.1,0.9-0.3,1.3-0.4c0.8-0.4,0.9-0.3,0.4,0.4c-0.1,0.9-1,1.6-1.6,2.3
				c-0.4,0.6-0.1,1.4,0.6,1.5c2.9,0.5,5.1-3,5.3-5.4C240.3,133.1,236.4,133.1,234.2,133z M178.3,168.2c-0.1,0.1-0.2,0.2-0.2,0.3
				c0-0.1,0.1-0.1,0.1-0.2c0.2-0.6,0.6-1.2,0.9-1.8C178.8,167.1,178.6,167.7,178.3,168.2z"/>
			<path class="st4" d="M265.2,145.2c-0.7,0-1.4,0.2-2,0.5c0,0,0,0,0,0c-0.3,0.1-0.7,0-1,0c-0.7,0-1.9-0.1-2.3,0.5
				c-0.3,0.4-0.2,0.8,0,1.1c0,0,0,0,0,0c0.5,0.9,2,0.6,2.9,0.8c1,0.2,2.4,0.5,3.2-0.3c0.2-0.2,0.2-0.6,0-0.9
				c-0.1-0.1-0.2-0.2-0.3-0.3C266.4,146.4,266.1,145.2,265.2,145.2z"/>
			<path class="st4" d="M187.8,195.9c1,0.2,2,1,3,0.6c0.1,0.3,0.4,0.6,0.9,0.5c0.1,0,0.1,0,0.2,0c0.5,0.6,1.1,0.9,2,0.6
				c0.8-0.3,0.8-1.3,0.4-1.9c-0.6-0.7-1.5-0.8-2.1-1.5c-0.1-0.3-0.3-0.6-0.6-0.9c-0.4-0.4-0.8-0.2-1.1,0.1c-0.7-0.2-1.2,0.5-0.8,1.1
				c0.1,0.2,0.5,0.4,0.4,0.5c-0.3-0.1-0.5-0.1-0.8-0.2c-0.4-0.1-0.8-0.3-1.2-0.3C187.3,194.5,186.9,195.7,187.8,195.9z"/>
			<path class="st4" d="M185,195.1c0.1,0,0.1,0.3,0.2,0.3c0,0,0,0,0,0c0.1,0,0.1-0.1,0.2,0c0.2,0.2,0.5,0,0.7-0.2
				c0.6-0.8-0.3-1.4-1-1.4c0,0-0.1,0-0.1,0c-0.3-0.1-0.6,0.2-0.4,0.4c0,0,0,0.1,0,0.1C184.5,194.7,184.7,195.1,185,195.1z"/>
			<path class="st4" d="M196.8,199.2c0.6,0.1,1.1-0.5,0.9-1c0,0,0-0.1-0.1-0.1c-0.2-0.6-1-0.6-1.3-0.1c0,0-0.1,0-0.1,0
				c-0.2,0-0.3,0.3-0.1,0.4C196.1,198.7,196.4,199.2,196.8,199.2z"/>
		</g>
	</g>
</g>
</svg>
