<?xml version="1.0" encoding="UTF-8"?>
<svg width="1290px" height="158px" viewBox="0 0 1290 158" version="1.1" xmlns="http://www.w3.org/2000/svg" xmlns:xlink="http://www.w3.org/1999/xlink" xmlns:sketch="http://www.bohemiancoding.com/sketch/ns">
    <title>wave</title>
    <description>Created with Sketch (http://www.bohemiancoding.com/sketch)</description>
    <defs></defs>
    <g id="Page-1" stroke="none" stroke-width="1" fill="none" fill-rule="evenodd" sketch:type="MSPage">
        <g id="Group" sketch:type="MSLayerGroup" transform="translate(0.000000, 1.000000)" fill-opacity="0.5">
            <path d="M386.571869,63.0138779 C139.516041,32.6609937 0,32 0,32 L0,156.999998 L835.753479,157 C835.753479,157 633.627686,93.3667641 386.571869,63.0138779 Z" id="Grün-1" fill="#22C127" sketch:type="MSShapeGroup"></path>
            <path d="M1063.99658,14.7023207 C847.674279,35.341559 812.779665,50.0039537 572.09314,73.5608002 C331.406616,97.1176468 0,78.2895218 0,78.2895218 L0,149.765268 C0,149.765268 20.4649448,151.395853 39.8370705,156.999994 C51.0938263,156.999994 1290,157 1290,157 L1290,-0.420950308 C1290,-0.420950308 1195.94778,2.11290024 1063.99658,14.7023207 Z" id="Blau-2" fill="#46AFDF" sketch:type="MSShapeGroup"></path>
            <path d="M150.325897,126.966341 C76.4844684,114.858397 0,106.293777 0,106.293777 L0,150.245155 C0,150.245155 25.2042007,153.757477 37.5205803,157 C97.7588654,157 300.651794,157 300.651794,157 C300.651794,157 224.167329,139.074284 150.325897,126.966341 Z" id="Grün-2" fill="#418351" sketch:type="MSShapeGroup"></path>
            <path d="M1072.26624,44.1336622 C855.943933,64.7729005 816.87671,83.6499765 576.190186,107.206823 C335.503662,130.76367 0,89.066465 0,89.066465 L0,127.878118 C0,127.878118 207.856873,137.419233 340.589294,156.999998 C357.145508,156.999998 1290,157 1290,157 L1290,32 C1290,32 1204.21744,31.5442418 1072.26624,44.1336622 Z" id="Blau-1" fill="#9dd5ee" sketch:type="MSShapeGroup"></path>
        </g>
    </g>
</svg>